<?xml version="1.0" encoding="utf-8" ?>
<svg baseProfile="full" height="200mm" version="1.1" viewBox="0,0,200,200" width="200mm" xmlns="http://www.w3.org/2000/svg" xmlns:ev="http://www.w3.org/2001/xml-events" xmlns:xlink="http://www.w3.org/1999/xlink"><defs /><rect fill="#1a1a1a" height="200" width="200" x="0" y="0" /><rect fill="#1a1a1a" height="200" width="180" x="10" y="0" /><text alignment-baseline="middle" fill="#e1ed5e" style="dominant-baseline: central; font-size:9.0px; font-family:Arial;" text-anchor="middle" x="100.0" y="100.0">2024</text><line stroke="#e1ed5e" stroke-width="0.3" x1="100.0" x2="100.0" y1="15.0" y2="10.0" /><path d="M 100.0 14.0 a86.0,86.0 0 0,1 42.35913384403234,11.155469271406648" fill="none" id="id1" stroke="none" /><text fill="#e1ed5e" style="font-size:6.75px; font-family:Arial;" text-anchor="middle"><textPath startOffset="22.145653131862478" xlink:href="#id1">January</textPath></text><line stroke="#e1ed5e" stroke-width="0.3" x1="143.13028292997686" x2="145.6673583964461" y1="26.7553504044142" y2="22.446841604673864" /><path d="M 143.63769802327073 25.89364864446614 a86.0,86.0 0 0,1 29.32050498858742,28.57503671076993" fill="none" id="id2" stroke="none" /><text fill="#e1ed5e" style="font-size:6.75px; font-family:Arial;" text-anchor="middle"><textPath startOffset="20.669276256404974" xlink:href="#id2">February</textPath></text><line stroke="#e1ed5e" stroke-width="0.3" x1="172.87174338648825" x2="177.1583165268699" y1="56.24261187166439" y2="53.66864786411523" /><path d="M 173.72905801456457 55.72781907015455 a86.0,86.0 0 0,1 12.242430191666344,42.057860355516425" fill="none" id="id3" stroke="none" /><text fill="#e1ed5e" style="font-size:6.75px; font-family:Arial;" text-anchor="middle"><textPath startOffset="22.145653131862474" xlink:href="#id3">March</textPath></text><line stroke="#e1ed5e" stroke-width="0.3" x1="184.99686870605535" x2="189.99668451229388" y1="99.2704041080226" y2="99.22748670261217" /><path d="M 185.99683186730306 99.26182062694052 a86.0,86.0 0 0,1 -10.086455211305974,41.156179273409016" fill="none" id="id4" stroke="none" /><text fill="#e1ed5e" style="font-size:6.75px; font-family:Arial;" text-anchor="middle"><textPath startOffset="21.40746469413373" xlink:href="#id4">April</textPath></text><line stroke="#e1ed5e" stroke-width="0.3" x1="174.33088141563837" x2="178.70328620479359" y1="141.23008692659167" y2="143.65538615756765" /><path d="M 175.20536237346943 141.71514677278685 a86.0,86.0 0 0,1 -30.301960400862466,31.631185727798858" fill="none" id="id5" stroke="none" /><text fill="#e1ed5e" style="font-size:6.75px; font-family:Arial;" text-anchor="middle"><textPath startOffset="22.145653131862474" xlink:href="#id5">May</textPath></text><path d="M 117.21940702142032 112.02048342749411 l 10.597864514006327 7.398132502412576 a33.92467008400941,33.92467008400941 0 0,0 -0.3374453032334237,0.4746590784308938 l -10.469304112242941 -7.5789688075529735" fill="#ff6309" stroke="none" /><path d="M 117.01052211995028 112.31430620078461 l 8.206133511593837 5.940607823422984 a31.13071806545902,31.13071806545902 0 0,0 -0.31708560586223444,0.4301875224059804 l -8.102945886147776 -6.080601655097842" fill="#ff3805" stroke="none" /><path d="M 116.79662413953412 112.60449989151573 l 9.953268181192051 7.4691180006092575 a33.44408579180308,33.44408579180308 0 0,0 -0.3485320021299575,0.4562395788156904 l -9.82358420170779 -7.638878492665825" fill="#ff5c08" stroke="none" /><path d="M 116.35404254752997 113.17365903436017 l 13.066378563580129 10.5253496504126 a37.77835611823241,37.77835611823241 0 0,0 -0.4111601645122796,0.5015485469973798 l -12.88377157982922 -10.748100479108473" fill="#ff9c0e" stroke="none" /><path d="M 116.1254893667686 113.45245675266167 l 5.030725833518968 4.196810414285948 a27.551444120611432,27.551444120611432 0 0,0 -0.30609055697945686,0.3605739064680421 l -4.9579407130323965 -4.282551103203547" fill="#ff0000" stroke="none" /><path d="M 115.89218393027572 113.72728997021213 l 13.688816744291122 11.824073873194793 a39.0884611511746,39.0884611511746 0 0,0 -0.44298196575543836,0.504032159951825 l -13.483823714577097 -12.057318310957912" fill="#ffaf10" stroke="none" /><path d="M 115.6541949942343 113.99807769240083 l 7.340479650975166 6.563902167545707 a30.847205348295105,30.847205348295105 0 0,0 -0.3563620447666216,0.39170431264032035 l -7.226719905366664 -6.688944055743699" fill="#ff3404" stroke="none" /><path d="M 115.16444852881244 114.52719865689866 l 13.208311031773857 12.653263184356062 a39.29110574909728,39.29110574909728 0 0,0 -0.4707695620882037,0.48305104323732306 l -12.989154668534846 -12.878136919661122" fill="#ffb210" stroke="none" /><path d="M 114.65682725009322 115.03919595460226 l 14.44306843314347 14.81986057728786 a41.69373077274169,41.69373077274169 0 0,0 -0.5168583470032754,0.49513860462032033 l -14.186537600274884 -15.065611312213761" fill="#ffd313" stroke="none" /><path d="M 114.39649973595853 115.28858382429668 l 8.956173852718443 9.51114626496698 a34.06426244966446,34.06426244966446 0 0,0 -0.429161414587084,0.3972253983339039 l -8.791582666817392 -9.663489409433264" fill="#ff6509" stroke="none" /><path d="M 114.13192950727249 115.5334660781643 l 4.707899111134341 5.174805825672383 a27.995922339050967,27.995922339050967 0 0,0 -0.35826111613522177,0.3203592991957854 l -4.618372968175741 -5.254860654751555" fill="#ff0701" stroke="none" /><path d="M 113.86319453409587 115.77377054828091 l 11.506324001424154 13.092084526856784 a38.42980692044844,38.42980692044844 0 0,0 -0.4992590436499884,0.4312480709072226 l -11.27988547801131 -13.287676730228725" fill="#ffa50f" stroke="none" /><path d="M 113.03279911837588 116.46651593811092 l 7.417358783930553 9.371590517501978 a32.95173293532301,32.95173293532301 0 0,0 -0.4465588333537461,0.3472468498028312 l -7.2553900059415755 -9.497538418925602" fill="#ff5407" stroke="none" /><path d="M 112.7482090630111 116.68781488649013 l 12.289690839373325 16.08759981311556 a41.24468741853853,41.24468741853853 0 0,0 -0.5663229685926336,0.4249793135150007 l -12.011714881869924 -16.296198153894576" fill="#ffcd13" stroke="none" /><path d="M 112.45986205192187 116.90419585922612 l 9.304522312609784 12.623371502306062 a36.68195279775724,36.68195279775724 0 0,0 -0.5100869901671844,0.3692636440940514 l -9.086454312068632 -12.781235917773191" fill="#ff8c0c" stroke="none" /><path d="M 111.8722381534696 117.32195027204791 l 7.366236765314068 10.747559583246034 a34.0296385628339,34.0296385628339 0 0,0 -0.48468529566004653,0.3261178977375563 l -7.180655181557018 -10.872427155040711" fill="#ff6509" stroke="none" /><path d="M 111.5731344415666 117.5232005979908 l 9.219052213059417 13.958820064560072 a37.72840641848113,37.72840641848113 0 0,0 -0.5434945244589237,0.3522865844397184 l -8.978072056343484 -14.115020490703687" fill="#ff9b0e" stroke="none" /><path d="M 110.96478420261333 117.91015095944535 l 4.949465238797739 8.084579500822924 a30.479326550720437,30.479326550720437 0 0,0 -0.4485791161436619,0.2693588705194009 l -4.80995336609664 -8.16835237187825" fill="#ff2e04" stroke="none" /><line stroke="#e1ed5e" stroke-width="0.3" x1="143.1302829299769" x2="145.66735839644613" y1="173.24464959558577" y2="177.55315839532614" /><path d="M 143.63769802327073 174.10635135553383 a86.0,86.0 0 0,1 -40.68552437913181,11.842963189579606" fill="none" id="id6" stroke="none" /><text fill="#e1ed5e" style="font-size:6.75px; font-family:Arial;" text-anchor="middle"><textPath startOffset="21.407464694133747" xlink:href="#id6">June</textPath></text><path d="M 110.34350942703117 118.27599006163325 l 15.300586133981396 27.034669624898207 a52.06414810952938,52.06414810952938 0 0,0 -0.781596441915763,0.4335383709700193 l -14.834245503909539 -27.29334091130137" fill="#a4ff21" stroke="none" /><path d="M 110.02825361518725 118.45085714620011 l 5.864668131619978 10.790328810842704 a33.28110451629417,33.28110451629417 0 0,0 -0.5043056990505449,0.26851437961295405 l -5.67857361678288 -10.889413658178226" fill="#ff5908" stroke="none" /><path d="M 109.71004243097381 118.62028667847754 l 5.498603857463662 10.54429791478138 a32.89188222683765,32.89188222683765 0 0,0 -0.5028899052209718,0.2567791688382665 l -5.316786730529108 -10.637135035292482" fill="#ff5407" stroke="none" /><path d="M 109.3889696526874 118.78422872680471 l 7.571583551975554 15.148239106696012 a37.935112208609105,37.935112208609105 0 0,0 -0.5849951086595905,0.28615042212413344 l -7.310428194053894 -15.27598327891737" fill="#ff9e0e" stroke="none" /><path d="M 108.73861861582097 119.09545874513695 l 12.289073309393535 26.853843005647835 a50.53218933597084,50.53218933597084 0 0,0 -0.7918793445157057,0.35419755850324625 l -11.826280562022202 -27.060844315060933" fill="#b6ff1f" stroke="none" /><path d="M 108.07796709384702 119.3841803445677 l 5.702390894890652 13.6836622652222 a35.824300148971545,35.824300148971545 0 0,0 -0.5696840578916035,0.23168554687422518 l -5.466652375808608 -13.779535068675717" fill="#ff7f0b" stroke="none" /><path d="M 107.74402155503746 119.51999308798841 l 3.4117904791696594 8.599940754004551 a30.251988718440003,30.251988718440003 0 0,0 -0.48435989151773123,0.187360811274621 l -3.263658325158399 -8.657241453417212" fill="#ff2b04" stroke="none" /><path d="M 107.407793817531 119.65005319985036 l 4.748630914911299 12.596307673093618 a34.46166641100902,34.46166641100902 0 0,0 -0.5553429412172399,0.20392962031622558 l -4.531698822039932 -12.675968142418565" fill="#ff6b09" stroke="none" /><path d="M 107.06938296918513 119.77432235084164 l 5.420604945537351 15.162396774492114 a37.10221208165862,37.10221208165862 0 0,0 -0.6015756694364865,0.209259245434487 l -5.1595235040558425 -15.253214452495191" fill="#ff920d" stroke="none" /><path d="M 106.0420521117495 120.11202640906438 l 2.7449224030430326 9.136953942101773 a30.540363008754785,30.540363008754785 0 0,0 -0.503392422557696,0.14653019768676953 l -2.58766996810373 -9.18272783409106" fill="#ff2f04" stroke="none" /><path d="M 105.69591212413111 120.21278271476187 l 4.855284284068976 17.2296910685319 a38.90072735383049,38.90072735383049 0 0,0 -0.6443045948014622,0.1756080824084089 l -4.5587982883328175 -17.31049964508445" fill="#ffac0f" stroke="none" /><path d="M 105.3480935250658 120.30758222061773 l 4.94754730559075 18.786642983668393 a40.42720203572494,40.42720203572494 0 0,0 -0.6726214476661778,0.1709777417310291 l -4.624320564699175 -18.868805957234695" fill="#ffc212" stroke="none" /><path d="M 104.9986988182912 120.39639698878246 l 3.9220737992160006 16.00339951176702 a37.476997870356165,37.476997870356165 0 0,0 -0.6261654060508097,0.1477733308679856 l -3.6467762394253116 -16.068368986281232" fill="#ff980e" stroke="none" /><path d="M 104.29559338865022 120.5559693870025 l 4.445568605279058 21.273655090211086 a42.733188471126525,42.733188471126525 0 0,0 -0.7193491575719593,0.1438899780625242 l -4.07972296217614 -21.34683446493647" fill="#ffe215" stroke="none" /><path d="M 103.94208987418118 120.62667999033965 l 1.770263859234429 9.262768553818635 a30.43041438182453,30.43041438182453 0 0,0 -0.5139338583276923,0.09365586902488639 l -1.6109952673556795 -9.291792596774885" fill="#ff2e04" stroke="none" /><path d="M 103.58742460773223 120.69131181640829 l 6.082500317597544 35.08224547034359 a56.605628169644994,56.605628169644994 0 0,0 -0.9588521616074033,0.15777875830645263 l -5.479370652937069 -35.18149022714571" fill="#6eff28" stroke="none" /><path d="M 102.875027216393 120.80226474461374 l 2.1263132779910014 15.384943657768192 a36.531184742602946,36.531184742602946 0 0,0 -0.6219385113374228,0.08052239193540883 l -1.8618969447628033 -15.419177645903995" fill="#ff8a0c" stroke="none" /><path d="M 102.51750503828377 120.84855314841334 l 2.183153842287954 18.07964560942135 a39.21097872332416,39.21097872332416 0 0,0 -0.6689469495077129,0.07495690098215216 l -1.872470991179442 -18.114458270910472" fill="#ffb110" stroke="none" /><path d="M 101.44090949804482 120.95050786540614 l 0.7098101628069803 10.320483985296294 a31.344864434006922,31.344864434006922 0 0,0 -0.5371250713437911,0.032312110492829185 l -0.5325407393307241 -10.331148073613816" fill="#ff3c05" stroke="none" /><path d="M 101.08105385017728 120.97215588758144 l 1.7827730329900586 34.58532056836257 a55.63123847776108,55.63123847776108 0 0,0 -0.9541399526457839,0.0409748749781453 l -1.188807319743445 -34.61082801176655" fill="#79ff26" stroke="none" /><path d="M 100.72087961077811 120.9876233191556 l 0.5163029810857888 15.031597958346204 a36.04046229175273,36.04046229175273 0 0,0 -0.6185001316515758,0.015930369420337626 l -0.2581895353634691 -15.038246045116585" fill="#ff830c" stroke="none" /><line stroke="#e1ed5e" stroke-width="0.3" x1="101.45913802915013" x2="101.54496967792366" y1="184.9874750549273" y2="189.98673829345242" /><path d="M 101.47630435890484 185.9873277026323 a86.0,86.0 0 0,1 -42.54439059252881,-10.42667462771756" fill="none" id="id7" stroke="none" /><text fill="#e1ed5e" style="font-size:6.75px; font-family:Arial;" text-anchor="middle"><textPath startOffset="22.145653131862474" xlink:href="#id7">July</textPath></text><path d="M 99.27912038922189 120.98762331915562 l -0.41028550722736634 11.94501488216899 a32.952059016448985,32.952059016448985 0 0,0 -0.5651658472802755,-0.02427065324118965 l 0.6152771151084806 -11.936211660501973" fill="#ff5407" stroke="none" /><path d="M 98.19965949673042 120.92268563240118 l -1.2831898266136006 14.912610864541296 a35.96771655692209,35.96771655692209 0 0,0 -0.614706151253493,-0.05821331163128192 l 1.5389955412521088 -14.88838579740483" fill="#ff820b" stroke="none" /><path d="M 97.84075906011543 120.88869738790638 l -1.8519091914462469 17.915541510652822 a39.011002061886714,39.011002061886714 0 0,0 -0.6655353086357716,-0.07457461950644924 l 2.1591804016828178 -17.8811111306394" fill="#ffae10" stroke="none" /><path d="M 95.00130118170881 120.39639698878247 l -3.535140220388844 14.424578468744727 a35.85145381364346,35.85145381364346 0 0,0 -0.5964908663172303,-0.15162564565845332 l 3.7822363799314527 -14.361767591251011" fill="#ff800b" stroke="none" /><path d="M 94.6519064749342 120.30758222061772 l -4.082174206778419 15.500680374137174 a37.02919955317945,37.02919955317945 0 0,0 -0.6133068720522138,-0.16715951523234673 l 4.347662479765328 -15.428320364760683" fill="#ff910d" stroke="none" /><path d="M 94.30408787586889 120.21278271476187 l -4.318837691720398 15.326031360848056 a36.92292674985107,36.92292674985107 0 0,0 -0.6085953051442042,-0.17715322356446697 l 4.581293009246209 -15.249634442981073" fill="#ff900d" stroke="none" /><path d="M 93.61358852112213 120.00534299687104 l -6.488528528768392 20.32522320121505 a42.33578450978196,42.33578450978196 0 0,0 -0.6904306465926281,-0.22695826723018198 l 6.836481913008764 -20.210844012582847" fill="#ffdc14" stroke="none" /><path d="M 93.27111125876986 119.89276391827306 l -4.77250533701559 14.109064010262315 a35.894377947316954,35.894377947316954 0 0,0 -0.5819918336712324,-0.2024469707645543 l 5.014002942731844 -14.02505860692917" fill="#ff810b" stroke="none" /><path d="M 91.92203290615298 119.3841803445677 l -6.560095108063462 15.741840140581617 a38.054042888372976,38.054042888372976 0 0,0 -0.6008278985592654,-0.2564577024596693 l 6.829358081793158 -15.626907788462544" fill="#ffa00e" stroke="none" /><path d="M 91.59046798132341 119.24265499422711 l -8.333383825313112 19.06841302569986 a41.8098452973267,41.8098452973267 0 0,0 -0.655193319810932,-0.29305963822884434 l 8.65949054797968 -18.92254963656116" fill="#ffd513" stroke="none" /><path d="M 91.26138138417905 119.09545874513695 l -10.749690285575749 23.49001328420224 a46.83285824928785,46.83285824928785 0 0,0 -0.7281646085737705,-0.34081780399902484 l 11.15134360802101 -23.302019248632693" fill="#e6ff1a" stroke="none" /><path d="M 90.6110303473126 118.78422872680471 l -7.378572371507177 14.762087452695203 a37.50341044155996,37.50341044155996 0 0,0 -0.5733963897946429,-0.2927802822401752 l 7.630895983015402 -14.633249218782192" fill="#ff980e" stroke="none" /><path d="M 89.97174638481275 118.45085714620012 l -9.941723017298775 18.29165059222968 a41.818797706421584,41.818797706421584 0 0,0 -0.627791381965412,-0.34822529690537546 l 10.25425858742029 -18.118292379891155" fill="#ffd513" stroke="none" /><line stroke="#e1ed5e" stroke-width="0.3" x1="58.13341422392154" x2="55.67067388415222" y1="173.97424548756322" y2="178.32567169271397" /><path d="M 57.64086615596768 174.84453072859336 a86.0,86.0 0 0,1 -31.369924170532247,-30.572349798747897" fill="none" id="id8" stroke="none" /><text fill="#e1ed5e" style="font-size:6.75px; font-family:Arial;" text-anchor="middle"><textPath startOffset="22.145653131862474" xlink:href="#id8">August</textPath></text><path d="M 89.65649057296885 118.27599006163327 l -7.411961495123312 13.096225761449595 a36.04819930755991,36.04819930755991 0 0,0 -0.5359294925661775,-0.3094190367997445 l 7.635683455549889 -12.96705982737368" fill="#ff830c" stroke="none" /><path d="M 89.34428304082925 118.09573695890944 l -25.66572464465405 43.58601150997565 a71.58131889228406,71.58131889228406 0 0,0 -1.0534971862867615,-0.63259479093246 l 26.410154587498237 -43.13900271850727" fill="#3cffa5" stroke="none" /><path d="M 89.03521579738668 117.91015095944536 l -15.606010991222922 25.491246116904804 a50.88898137526244,50.88898137526244 0 0,0 -0.7411274263765466,-0.4625183276064184 l 16.041302546389183 -25.219591992456838" fill="#b2ff20" stroke="none" /><path d="M 88.4268655584334 117.5232005979908 l -8.209998796099333 12.43098458241337 a35.89743125240561,35.89743125240561 0 0,0 -0.5112883302560511,-0.3440176066694626 l 8.42218341445239 -12.288217301686785" fill="#ff810b" stroke="none" /><path d="M 87.83215693770417 117.11559508785305 l -10.276954440276548 14.455823438513246 a38.73658997251131,38.73658997251131 0 0,0 -0.5386580888252944,-0.38994691618222577 l 10.523593539475796 -14.277275750957955" fill="#ffaa0f" stroke="none" /><path d="M 87.54013794807813 116.9041958592261 l -8.861856867907447 12.0228108102071 a35.93587918153167,35.93587918153167 0 0,0 -0.4934287310884987,-0.3702781187344123 l 9.06693858790671 -11.868913664208673" fill="#ff810b" stroke="none" /><path d="M 86.96720088162412 116.46651593811092 l -29.494790655390023 37.26570447429323 a68.52552372957757,68.52552372957757 0 0,0 -0.9161184760991012,-0.7379601957211476 l 30.130159901844387 -36.753895984778666" fill="#38ff80" stroke="none" /><path d="M 86.40962598614128 116.0094264158162 l -9.003672823130762 10.606303946234753 a34.912577320751836,34.912577320751836 0 0,0 -0.45356511940318106,-0.3917787474482969 l 9.184417422296805 -10.450181066321734" fill="#ff720a" stroke="none" /><path d="M 86.13680546590413 115.77377054828092 l -11.114251533553805 12.645978030170575 a37.83589461509723,37.83589461509723 0 0,0 -0.48418229164294857,-0.43295879080329186 l 11.329698852020124 -12.453323709483902" fill="#ff9d0e" stroke="none" /><path d="M 85.86807049272751 115.53346607816431 l -11.562699960571171 12.709432743568017 a38.182133483402794,38.182133483402794 0 0,0 -0.4810407517821193,-0.44524413832810006 l 11.779170483667258 -12.50907085910754" fill="#ffa20f" stroke="none" /><path d="M 85.34317274990678 115.03919595460226 l -11.136713673315652 11.427249319748062 a36.95645381834881,36.95645381834881 0 0,0 -0.4505309895638664,-0.4466803204837293 l 11.331236583009481 -11.234388989035674" fill="#ff900d" stroke="none" /><path d="M 84.83555147118756 114.52719865689866 l -23.76096446028002 22.762466458187028 a53.90460927199683,53.90460927199683 0 0,0 -0.6343909388714621,-0.673701192942428 l 24.148211232887736 -22.351223805300112" fill="#8dff24" stroke="none" /><path d="M 84.3458050057657 113.99807769240083 l -11.76273276195777 10.518308168352238 a36.77962891685543,36.77962891685543 0 0,0 -0.4168164168533432,-0.4742605684448057 l 11.941560242769704 -10.314835322096132" fill="#ff8d0d" stroke="none" /><path d="M 84.1078160697243 113.72728997021213 l -14.299277467905124 12.351375306732233 a39.89512656935364,39.89512656935364 0 0,0 -0.4432261865810504,-0.5221193333160826 l 14.509198217993287 -12.104089190966597" fill="#ffba11" stroke="none" /><path d="M 83.4222238831116 112.89097897827486 l -16.49545814997763 12.826968029309263 a41.89572320841242,41.89572320841242 0 0,0 -0.4366093419748965,-0.5715356439932984 l 16.71321946930682 -12.541911472075094" fill="#ffd614" stroke="none" /><path d="M 82.98947788004972 112.3143062007846 l -15.780795097628586 11.424078670467463 a40.48186508993346,40.48186508993346 0 0,0 -0.40266906669686553,-0.5664044699379029 l 15.97457926285541 -11.151496973820056" fill="#ffc212" stroke="none" /><path d="M 82.78059297857968 112.02048342749411 l -12.321791910627592 8.601567712202957 a36.027092965587855,36.027092965587855 0 0,0 -0.3496519666235816,-0.5101526687794254 l 12.467633614066498 -8.388780308353482" fill="#ff820c" stroke="none" /><path d="M 82.576782715395 111.72311816256416 l -15.944959319400034 10.728480231017391 a40.218272965192604,40.218272965192604 0 0,0 -0.38049466414280997,-0.5761174174467663 l 16.12677842246357 -10.453182935231563" fill="#ffbf11" stroke="none" /><path d="M 82.18462484594161 111.11811171558189 l -22.68313902430948 14.15595638887783 a47.73791123629448,47.73791123629448 0 0,0 -0.4278954383169009,-0.6989350409000482 l 22.922802427081784 -13.764484231853224" fill="#daff1c" stroke="none" /><line stroke="#e1ed5e" stroke-width="0.3" x1="26.387840678322732" x2="22.057713659400548" y1="142.50000000000003" y2="145.00000000000006" /><path d="M 25.521815274538298 143.00000000000003 a86.0,86.0 0 0,1 -11.493303480769221,-40.785679425670985" fill="none" id="id9" stroke="none" /><text fill="#e1ed5e" style="font-size:6.75px; font-family:Arial;" text-anchor="middle"><textPath startOffset="21.40746469413373" xlink:href="#id9">September</textPath></text><path d="M 81.81346652052679 110.50000000000001 l -18.59508991781587 10.7358801696563 a42.47176033931258,42.47176033931258 0 0,0 -0.35912226500334377,-0.6345346318300933 l 18.77664554784059 -10.415088767727086" fill="#ffde14" stroke="none" /><path d="M 81.4637452351635 109.86951160357371 l -15.866609074713578 8.448075641974755 a38.975518506633136,38.975518506633136 0 0,0 -0.30937640202729905,-0.5932700436950122 l 16.009293545715824 -8.17445935517524" fill="#ffad10" stroke="none" /><path d="M 81.1358732173502 109.22738970284198 l -20.40564597724789 9.981423987431823 a43.71605627228574,43.71605627228574 0 0,0 -0.323958338864731,-0.6769483313697946 l 20.573983574072532 -9.629663153996923" fill="#ffef16" stroke="none" /><path d="M 80.83023694016515 108.57439118712176 l -12.440233972876317 5.564358422679559 a34.62796778525511,34.62796778525511 0 0,0 -0.23805263251422717,-0.5447110098118924 l 12.533920487407512 -5.349985343091818" fill="#ff6e0a" stroke="none" /><path d="M 80.68587082218212 108.24405325689762 l -11.85139470464225 5.058655671921095 a33.88586643001866,33.88586643001866 0 0,0 -0.22376637663487112,-0.5369578446345351 l 11.936486925813606 -4.854465317845278" fill="#ff6309" stroke="none" /><path d="M 80.41425534168474 107.57618678355246 l -14.201042176921797 5.493268187165303 a36.226476752250804,36.226476752250804 0 0,0 -0.21937601316171274,-0.5819209383496948 l 14.293248873897946 -5.248678968621464" fill="#ff850c" stroke="none" /><path d="M 80.05021161711548 106.5578916946017 l -21.17230592692268 6.959757493610909 a43.28687422302819,43.28687422302819 0 0,0 -0.2259889885026627,-0.7079072877568457 l 21.2886596312026 -6.5952811721626725" fill="#ffe915" stroke="none" /><path d="M 79.94057633289273 106.21446072829308 l -14.397476018459614 4.460374873579875 a36.072566460791684,36.072566460791684 0 0,0 -0.17817044477271227,-0.5930714638517063 l 14.471922783235955 -4.212565806137445" fill="#ff830c" stroke="none" /><path d="M 79.73907114497094 105.5222062557868 l -20.982528019906596 5.718881316983128 a42.74792140927275,42.74792140927275 0 0,0 -0.18689089805256273,-0.7096551809910351 l 21.07760839876389 -5.35784563161929" fill="#ffe215" stroke="none" /><path d="M 79.64726062577567 105.17358676015961 l -8.153907441714264 2.072691386076746 a29.413219131222007,29.413219131222007 0 0,0 -0.12019148032230649,-0.49042225515823806 l 8.188286448552864 -1.9324133063104085" fill="#ff1e03" stroke="none" /><path d="M 79.56144815229197 104.8234425847677 l -14.6436547323909 3.455862644239646 a36.04591673967809,36.04591673967809 0 0,0 -0.13695584004871453,-0.6034527013030158 l 14.70082143399728 -3.2039756089976037" fill="#ff830c" stroke="none" /><path d="M 79.34024301695615 103.76489593502545 l -23.17333524749784 4.222953626506437 a44.55497407819736,44.55497407819736 0 0,0 -0.13066315286831207,-0.7536303433627665 l 23.242413217858388 -3.8245302502230785" fill="#fffa17" stroke="none" /><path d="M 79.2786578344484 103.40968896794605 l -14.992137803261537 2.466950570349165 a36.193750064698634,36.193750064698634 0 0,0 -0.09561786892904588,-0.6139353101554762 l 15.032277164328852 -2.2092270782622387" fill="#ff850c" stroke="none" /><path d="M 79.13060592940153 102.33845913500099 l -14.881903854244113 1.66754836754901 a35.97503856038712,35.97503856038712 0 0,0 -0.06350040999111232,-0.6143088637358087 l 14.908336656716891 -1.4118349815302698" fill="#ff820b" stroke="none" /><path d="M 79.0935383218832 101.97986365728391 l -21.10136677826489 1.9983213729100056 a42.195777131784766,42.195777131784766 0 0,0 -0.062100886123665745,-0.7217064302554498 l 21.132561287086297 -1.6357938952788937" fill="#ffda14" stroke="none" /><path d="M 79.03789590574601 101.26102812881392 l -24.897202227893366 1.4977538608229788 a45.94221211930146,45.94221211930146 0 0,0 -0.04060068732301043,-0.7876424875056156 l 24.91924450467295 -1.0701395799406324" fill="#f1ff19" stroke="none" /><path d="M 79.01933749520258 100.90099992219065 l -15.594418958137009 0.6696914487174577 a36.60879205058445,36.60879205058445 0 0,0 -0.021573583823489544,-0.6280913541762106 l 15.603617228957347 -0.4018938299771271" fill="#ff8b0c" stroke="none" /><line stroke="#e1ed5e" stroke-width="0.3" x1="15.003131293944662" x2="10.003315487706104" y1="100.72959589197737" y2="100.7725132973878" /><path d="M 14.003168132696942 100.73817937305945 a86.0,86.0 0 0,1 10.791469493833604,-42.45332614584628" fill="none" id="id10" stroke="none" /><text fill="#e1ed5e" style="font-size:6.75px; font-family:Arial;" text-anchor="middle"><textPath startOffset="22.145653131862435" xlink:href="#id10">October</textPath></text><path d="M 79.00077361379809 100.18025310272382 l -22.293523149354357 0.19136308378278674 a43.294344445186844,43.294344445186844 0 0,0 0.0,-0.7432323730132003 l 22.293523149354357 0.19136308378277853" fill="#ffe915" stroke="none" /><path d="M 79.00077361379809 99.81974689727619 l -16.094267519878183 -0.13814993005796375 a37.09486043445487,37.09486043445487 0 0,0 0.010931622911264819,-0.6367122307284208 l 16.089524465368253 0.4144090767554369" fill="#ff920d" stroke="none" /><path d="M 79.00696218219943 99.45929381324524 l -21.17485173891173 -0.5453890684242063 a42.18187421832284,42.18187421832284 0 0,0 0.0248578045957728,-0.7237078585621521 l 21.162369247319106 0.908803191550497" fill="#ffda14" stroke="none" /><path d="M 79.03789590574601 98.7389718711861 l -35.56380483557928 -2.139430186190461 a56.62809812359839,56.62809812359839 0 0,0 0.06670261115875763,-0.9698413270374425 l 35.52183826325546 2.7496149373822285" fill="#6eff28" stroke="none" /><path d="M 79.06263194458094 98.37931529534042 l -12.65340395206702 -0.9794534916095368 a33.691255285290396,33.691255285290396 0 0,0 0.049584507030182905,-0.5762471326651984 l 12.634725822339094 1.196521671650416" fill="#ff6008" stroke="none" /><path d="M 79.0935383218832 98.0201363427161 l -15.265044567506266 -1.4456155915498343 a36.33334243035368,36.33334243035368 0 0,0 0.06413286081131735,-0.620427251708152 l 15.237979314213286 1.7074473655408993" fill="#ff870c" stroke="none" /><path d="M 79.17382384314186 97.30363454192245 l -18.1082774511805 -2.3444790563998485 a39.25941659240047,39.25941659240047 0 0,0 0.0922698802704009,-0.6676188894471663 l 18.06536305435489 2.654986254047082" fill="#ffb110" stroke="none" /><path d="M 79.22317932658666 96.9465228501225 l -18.488194883517465 -2.717127971920258 a39.686790373595805,39.686790373595805 0 0,0 0.10484590055945064,-0.6731858929659044 l 18.438827490819747 3.0341020468176123" fill="#ffb711" stroke="none" /><path d="M 79.2786578344484 96.59031103205396 l -17.894858109151293 -2.9445920920686954 a39.13550576453084,39.13550576453084 0 0,0 0.11476986976392131,-0.6619621098922697 l 17.841673421895138 3.2513472348815577" fill="#ffaf10" stroke="none" /><path d="M 79.407916724674 95.88100663000787 l -22.5333068502676 -4.507292452117434 a43.979678040765315,43.979678040765315 0 0,0 0.1544362921873029,-0.7390335646833538 l 22.45261284725593 4.893442468086197" fill="#fff316" stroke="none" /><path d="M 79.48165901384962 95.52812308129327 l -6.689716889434282 -1.4579926598713004 a27.846755045787813,27.846755045787813 0 0,0 0.10580326635801168,-0.4661887135861751 l 6.663702761518609 1.5726157073964837" fill="#ff0500" stroke="none" /><path d="M 79.64726062577567 94.8264132398404 l -17.4812080490722 -4.443654726341825 a39.037147839441985,39.037147839441985 0 0,0 0.17066765766865963,-0.6480528947862527 l 17.402350910598813 4.743088125500863" fill="#ffae10" stroke="none" /><path d="M 79.83685265289637 94.1308016681162 l -21.208724273798392 -6.173550536843238 a43.08897262330149,43.08897262330149 0 0,0 0.21282603846436596,-0.7084286641302278 l 21.099621915330395 6.536716804564189" fill="#ffe715" stroke="none" /><path d="M 80.05021161711548 93.44210830539832 l -28.228896398304865 -9.279398943250756 a50.714942985209184,50.714942985209184 0 0,0 0.2789673932818088,-0.8247175289803476 l 28.06544358345069 9.762618146705265" fill="#b4ff20" stroke="none" /><path d="M 80.41425534168474 92.42381321644754 l -14.5201204341828 -5.616694511655514 a36.56859514087363,36.56859514087363 0 0,0 0.23149892822165852,-0.5835285254111939 l 14.42156283099501 5.865124054280291" fill="#ff8a0c" stroke="none" /><path d="M 80.5471966667186 92.08871423366112 l -8.40563558915863 -3.418498817585315 a30.074185573568702,30.074185573568702 0 0,0 0.198595823127041,-0.47655767923400966 l 8.345713921495111 3.5622890062605883" fill="#ff2803" stroke="none" /><path d="M 80.9802524753101 91.09779779509293 l -57.05924257406971 -26.706606614721213 a84.0,84.0 0 0,0 0.6224829681603801,-1.3007499917396512 l 56.59238034794942 27.68216910852595" fill="#4dd2ff" stroke="none" /><path d="M 81.63589988554816 89.8137432299009 l -13.241409675239199 -7.344786736591325 a36.142021740623875,36.142021740623875 0 0,0 0.30560081818129076,-0.5399673636215092 l 13.113375492036539 7.571010870311939" fill="#ff840c" stroke="none" /><line stroke="#e1ed5e" stroke-width="0.3" x1="26.387840678322718" x2="22.05771365940052" y1="57.49999999999999" y2="54.99999999999999" /><path d="M 25.521815274538284 56.99999999999999 a86.0,86.0 0 0,1 29.574782752854787,-30.34633250058573" fill="none" id="id11" stroke="none" /><text fill="#e1ed5e" style="font-size:6.75px; font-family:Arial;" text-anchor="middle"><textPath startOffset="21.40746469413373" xlink:href="#id11">November</textPath></text><path d="M 81.99639281039701 89.18935116829357 l -10.193127709594224 -6.120680317264198 a32.889599658955845,32.889599658955845 0 0,0 0.29480363295487955,-0.4815395790786576 l 10.08655611218395 6.294757012467399" fill="#ff5307" stroke="none" /><path d="M 82.37810715431573 88.57770195909679 l -20.027480328355423 -12.981570783687221 a44.866737278365996,44.866737278365996 0 0,0 0.42447258107502894,-0.6427055888860688 l 19.801683308359664 13.32345625091235" fill="#fffe18" stroke="none" /><path d="M 82.576782715395 88.27688183743585 l -12.686477509289174 -8.536028247752022 a36.29086295276105,36.29086295276105 0 0,0 0.3522119204572202,-0.5138877179278502 l 12.53807585201664 8.752550700749905" fill="#ff860c" stroke="none" /><path d="M 82.98947788004972 87.6856937992154 l -20.327066396204692 -14.715228492191352 a46.09437343017582,46.09437343017582 0 0,0 0.46949968501256634,-0.6369664927448555 l 20.07146469160831 15.062001294205071" fill="#efff19" stroke="none" /><path d="M 83.2033758604659 87.39550010848427 l -12.03744443125909 -9.033122713677653 a36.049829713189766,36.049829713189766 0 0,0 0.37568733092597806,-0.4917867759074399 l 11.880605122978805 9.238430402825976" fill="#ff830c" stroke="none" /><path d="M 83.42222388311158 87.10902102172516 l -17.472041129733302 -13.586364861176609 a43.132815712875455,43.132815712875455 0 0,0 0.45953613409149335,-0.5806088935634895 l 17.236238565000246 13.884293698654782" fill="#ffe715" stroke="none" /><path d="M 83.8745106332314 86.54754324733833 l -27.3501073563299 -22.81643229692637 a56.61766352756727,56.61766352756727 0 0,0 0.6290099382145906,-0.740972125593795 l 26.954402854608194 23.28257120496972" fill="#6eff28" stroke="none" /><path d="M 84.10781606972428 86.27271002978789 l -13.552847229157193 -11.706626644447532 a38.90879045076363,38.90879045076363 0 0,0 0.440945792477872,-0.5017153685371295 l 13.34989037272073 11.937554290795962" fill="#ffac0f" stroke="none" /><path d="M 84.34580500576568 86.00192230759919 l -11.060671022291226 -9.890520231614888 a35.837817693830054,35.837817693830054 0 0,0 0.41401604615872534,-0.45507615966473297 l 10.889257275290634 10.078933966837278" fill="#ff800b" stroke="none" /><path d="M 84.58840730492382 85.73525988315684 l -19.843985254722273 -18.367296498272903 a48.03962520903541,48.03962520903541 0 0,0 0.5653672914242401,-0.6004004712941091 l 19.525762129561762 18.705238429511525" fill="#d6ff1c" stroke="none" /><path d="M 84.83555147118756 85.47280134310135 l -10.730753309686147 -10.279818931219067 a35.86013942908983,35.86013942908983 0 0,0 0.42966116156816797,-0.4408702028513452 l 10.552705346967176 10.462511826138142" fill="#ff800b" stroke="none" /><path d="M 85.08716467003674 85.21462403516908 l -21.0763602354605 -20.896221486827326 a50.67937049873943,50.67937049873943 0 0,0 0.617825158590657,-0.612544633409872 l 20.714543156739865 21.25494613046587" fill="#b5ff20" stroke="none" /><path d="M 85.60350026404147 84.71141617570332 l -28.46273672105013 -30.226440052074864 a62.51824972073716,62.51824972073716 0 0,0 0.7876413155079433,-0.7290290428320819 l 27.939665634228234 30.710586841039312" fill="#30ff33" stroke="none" /><path d="M 85.86807049272753 84.46653392183569 l -11.998978577352979 -13.188979368175886 a38.830442049314,38.830442049314 0 0,0 0.4969094191694397,-0.4443394667168432 l 11.770804131360148 13.39301436477613" fill="#ffab0f" stroke="none" /><path d="M 86.13680546590413 84.22622945171909 l -12.436730460741728 -14.150716285202153 a39.83918883437996,39.83918883437996 0 0,0 0.5175689630296026,-0.4470637431746677 l 12.191982017949277 14.36212416084153" fill="#ffb911" stroke="none" /><path d="M 86.40962598614128 83.9905735841838 l -16.330410959464913 -19.237183048015396 a46.23393615209214,46.23393615209214 0 0,0 0.6094638171246997,-0.5084363925772215 l 15.997772808178306 19.5146816245045" fill="#edff19" stroke="none" /><path d="M 86.68645165197937 83.75963576809568 l -11.309435334181536 -13.795672219238487 a38.83883122737312,38.83883122737312 0 0,0 0.5192367593994113,-0.4182603785305071 l 11.07094780442688 13.987780891562393" fill="#ffab0f" stroke="none" /><path d="M 86.96720088162412 83.53348406188908 l -29.49480905257536 -37.26572771853591 a68.52555337331631,68.52555337331631 0 0,0 0.9286519537339327,-0.7221253761246338 l 28.850747154206182 37.76655414628135" fill="#38ff80" stroke="none" /><path d="M 87.54013794807813 83.09580414077388 l -22.85854846992883 -31.012011110804327 a59.52607002133408,59.52607002133408 0 0,0 0.8277496582875437,-0.5992269183667661 l 22.322817801267316 31.39983880054417" fill="#4dff2c" stroke="none" /><path d="M 87.83215693770416 82.88440491214696 l -10.32623298001525 -14.52513987597631 a38.82163785891274,38.82163785891274 0 0,0 0.5464698437985236,-0.3814783919582193 l 10.075368045042962 14.700263083739657" fill="#ffab0f" stroke="none" /><path d="M 88.12776184653039 82.6780497279521 l -15.431203590978015 -22.514587206343357 a48.29521352432057,48.29521352432057 0 0,0 0.6878703634415603,-0.46282987920242896 l 15.042436939439465 22.776166759602894" fill="#d3ff1c" stroke="none" /><path d="M 88.4268655584334 82.4767994020092 l -8.196798731971757 -12.410998002910496 a35.87347911151598,35.87347911151598 0 0,0 0.5167734691505258,-0.33496631922344433 l 7.9825396305642045 12.549878163837846" fill="#ff800b" stroke="none" /><path d="M 88.72937992617638 82.28071324371311 l -19.111012001185287 -30.045685120584405 a56.60862218725621,56.60862218725621 0 0,0 0.8244260611740144,-0.5145028364604382 l 18.592421811221577 30.36932375388638" fill="#6eff28" stroke="none" /><path d="M 89.03521579738668 82.08984904055464 l -19.271610253544093 -31.47872703142718 a57.90941908623881,57.90941908623881 0 0,0 0.8522811679211493,-0.5117703533097002 l 18.728396329065507 31.804911385272803" fill="#5fff29" stroke="none" /><line stroke="#e1ed5e" stroke-width="0.3" x1="56.869717070023135" x2="54.33264160355391" y1="26.7553504044142" y2="22.446841604673864" /><path d="M 56.362301976729285 25.89364864446614 a86.0,86.0 0 0,1 42.16139366436587,-11.88097634709845" fill="none" id="id12" stroke="none" /><text fill="#e1ed5e" style="font-size:6.75px; font-family:Arial;" text-anchor="middle"><textPath startOffset="22.145653131862474" xlink:href="#id12">December</textPath></text><path d="M 89.65649057296885 81.72400993836675 l -16.08217585658513 -28.415663774258274 a53.650977443467504,53.650977443467504 0 0,0 0.8054182119123321,-0.446751905223867 l 15.592013456516694 28.687548594915288" fill="#90ff24" stroke="none" /><path d="M 90.28995756902619 81.37971332152246 l -16.46368292685831 -31.57128283021449 a56.60616175694204,56.60616175694204 0 0,0 0.865461791591988,-0.4419109574462844 l 15.919293913552742 31.849251739333607" fill="#6eff28" stroke="none" /><path d="M 90.61103034731259 81.2157712731953 l -9.286298961344382 -18.57881856774913 a41.770359837345275,41.770359837345275 0 0,0 0.644138234188583,-0.31508028852018116 l 8.966000477893745 18.735492606366527" fill="#ffd413" stroke="none" /><path d="M 90.93487009805054 81.0573650232925 l -8.411251064167878 -17.576279692551385 a40.48524447614808,40.48524447614808 0 0,0 0.6294709163396642,-0.2946241726968006 l 8.10829143395669 17.718080096818728" fill="#ffc312" stroke="none" /><path d="M 91.92203290615298 80.6158196554323 l -13.715399401683506 -32.91196564820317 a56.65542965070265,56.65542965070265 0 0,0 0.9009441895805224,-0.3664061585971853 l 13.148400750912543 33.14255906337964" fill="#6dff28" stroke="none" /><path d="M 92.25597844496254 80.48000691201159 l -6.6904570054024095 -16.864322183605644 a39.14297598668949,39.14297598668949 0 0,0 0.6267121073940342,-0.24242570644946795 l 6.399972635514846 16.976687778193153" fill="#ffb010" stroke="none" /><path d="M 92.592206182469 80.34994680014964 l -7.811673792214922 -20.72139281652702 a43.14494000201389,43.14494000201389 0 0,0 0.6952721784720625,-0.25531357445809044 l 7.454812462088733 20.85243723999383" fill="#ffe715" stroke="none" /><path d="M 93.27111125876988 80.10723608172694 l -6.68043033695516 -19.74950525652827 a41.848767526272354,41.848767526272354 0 0,0 0.6824881588196684,-0.22434741374135478 l 6.340419440487731 19.861273591671655" fill="#ffd614" stroke="none" /><path d="M 93.61358852112211 79.99465700312896 l -16.238702435939228 -50.867504095143005 a74.3966144027163,74.3966144027163 0 0,0 1.2199605262958948,-0.3779468895292998 l 15.363101276771719 51.13876757247895" fill="#40ffc6" stroke="none" /><path d="M 94.6519064749342 79.69241777938228 l -6.796358634704468 -25.806880737630316 a47.68680543073293,47.68680543073293 0 0,0 0.7934055904994942,-0.20168059851654602 l 6.352347750979596 25.919746567982127" fill="#dbff1b" stroke="none" /><path d="M 95.00130118170881 79.60360301121753 l -5.333249548052881 -21.761478131926644 a43.405478821666094,43.405478821666094 0 0,0 0.7252184223831479,-0.1711495730150358 l 4.958898971929827 21.849823848587913" fill="#ffeb16" stroke="none" /><path d="M 95.35216902796891 79.52079915486377 l -7.923111053587515 -34.91068921420583 a56.79849033378849,56.79849033378849 0 0,0 0.9526934749931439,-0.207635108720537 l 7.322655161975253 35.04155578106008" fill="#6cff28" stroke="none" /><path d="M 95.70440661134978 79.44403061299748 l -2.430217005563625 -11.629468120081107 a32.880676893599684,32.880676893599684 0 0,0 0.553496897143233,-0.11071488101332333 l 2.2302236228894152 11.669472397757296" fill="#ff5307" stroke="none" /><path d="M 96.76829788921471 79.25015418208739 l -9.001000771573079 -57.79288183577949 a79.48961622180667,79.48961622180667 0 0,0 1.3500928795808833,-0.19841716029669837 l 8.00758278638451 57.938880069375074" fill="#47fffe" stroke="none" /><path d="M 97.84075906011542 79.11130261209362 l -3.9948047299024427 -38.646111967092395 a59.852032572351895,59.852032572351895 0 0,0 1.0229009820243506,-0.09686978650384787 l 3.3308041844930765 38.708993509101425" fill="#49ff2c" stroke="none" /><path d="M 98.5590905019552 79.04949213459386 l -1.904303591956729 -27.688156289861524 a48.75356501248331,48.75356501248331 0 0,0 0.8354402725437262,-0.0502580122150218 l 1.428718967280519 27.71676627990124" fill="#cdff1d" stroke="none" /><path d="M 99.27912038922189 79.0123766808444 l -1.0196356527018027 -29.6855795083288 a50.70308548971927,50.70308548971927 0 0,0 0.8701293783822704,-0.02241144622573339 l 0.5098929602487883 29.69870867190458" fill="#b4ff20" stroke="none" /><path d="M 99.63950707515114 79.00309439819443 l -0.4096035251989664 -23.85735186446544 a44.860867818098484,44.860867818098484 0 0,0 0.7700964500478127,-0.006610351827481292 l 5.84422707966248e-15 23.860867818098484" fill="#fffe18" stroke="none" /></svg>