<?xml version="1.0" encoding="utf-8" ?>
<svg baseProfile="full" height="200mm" version="1.1" viewBox="0,0,200,200" width="200mm" xmlns="http://www.w3.org/2000/svg" xmlns:ev="http://www.w3.org/2001/xml-events" xmlns:xlink="http://www.w3.org/1999/xlink"><defs /><rect fill="#1a1a1a" height="200" width="200" x="0" y="0" /><rect fill="#1a1a1a" height="200" width="180" x="10" y="0" /><text alignment-baseline="middle" fill="#e1ed5e" style="dominant-baseline: central; font-size:9.0px; font-family:Arial;" text-anchor="middle" x="100.0" y="100.0">2026</text><line stroke="#e1ed5e" stroke-width="0.3" x1="100.0" x2="100.0" y1="15.0" y2="10.0" /><path d="M 100.0 14.0 a86.0,86.0 0 0,1 42.46469731375804,11.215312516191453" fill="none" id="id25" stroke="none" /><text fill="#e1ed5e" style="font-size:6.75px; font-family:Arial;" text-anchor="middle"><textPath startOffset="22.20632615414155" xlink:href="#id25">January</textPath></text><path d="M 100.0 79.0 l 0.0 -63.0 a84.0,84.0 0 0,0 1.4459219170901134,0.012445506434235476 l -1.084441437817585 62.990665870174325" fill="#4dd2ff" stroke="none" /><path d="M 100.72285384407766 79.0124445844662 l 0.9639063344894161 -27.986345754712822 a49.00294027640671,49.00294027640671 0 0,0 0.8427552914620166,0.036290815633201336 l -1.4455024583407643 27.965607212555426" fill="#ffb210" stroke="none" /><path d="M 101.44485096284872 79.0497635885617 l 3.426498289810451 -49.68398200280973 a70.80199753208294,70.80199753208294 0 0,0 1.2151302153955237,0.09431749130919058 l -4.281218694568316 49.61763924931207" fill="#36ff6f" stroke="none" /><path d="M 102.16513564639614 79.11191278185805 l 3.209792222281314 -30.966383100626743 a52.13229269496545,52.13229269496545 0 0,0 0.8917931123051575,0.1002033470487544 l -3.7423520380961968 30.906543800107386" fill="#ffea16" stroke="none" /><path d="M 102.52436894288641 79.15227682838746 l 3.74937940277432 -30.96457991002243 a52.19075271470878,52.19075271470878 0 0,0 0.8909341026815355,0.11566881650802054 l -4.281828233963701 30.895452770350275" fill="#ffeb16" stroke="none" /><path d="M 102.88285421437855 79.19881850522331 l 3.8585267686040674 -27.841128842336886 a49.10723543928924,49.10723543928924 0 0,0 0.8362986037372885,0.12324867501221361 l -4.337194352770012 27.770585683163706" fill="#ffb410" stroke="none" /><path d="M 103.59715602781102 79.31037775812273 l 3.21356709830241 -18.483348734044785 a39.76062882527147,39.76062882527147 0 0,0 0.6732892189658652,0.12303930120962937 l -3.531251438371176 18.425293951484417" fill="#ff0000" stroke="none" /><path d="M 104.307194497241 79.44645832069477 l 6.384295461360159 -30.465279183960416 a52.127037512339584,52.127037512339584 0 0,0 0.8766210745621289,0.19159541334299177 l -6.9077592600758155 30.350870272521554" fill="#ffea16" stroke="none" /><path d="M 104.66035177308747 79.52364482259891 l 8.795574372296304 -38.64543141924005 a60.63371668311945,60.63371668311945 0 0,0 1.0156907285974612,0.2403811798077193 l -9.459488787856289 38.48830432729146" fill="#8aff24" stroke="none" /><path d="M 105.36241919743992 79.69619591428918 l 4.800887092389153 -18.17766708876908 a39.800960019743336,39.800960019743336 0 0,0 0.6608894652289141,0.1806460560912441 l -5.113074446841778 18.092334491851542" fill="#ff0100" stroke="none" /><path d="M 106.0581310904928 79.89281104454417 l 17.954730700876844 -59.592497662094665 a83.23855824284306,83.23855824284306 0 0,0 1.368341326661916,0.4251503109381334 l -18.97785740024948 59.27460721627401" fill="#4cdcff" stroke="none" /><path d="M 107.4271985657038 80.35727306442388 l 13.260441868047993 -35.06991719083859 a58.49317818361303,58.49317818361303 0 0,0 0.938723132407228,0.3642099914351284 l -13.862148165454887 34.836464495512914" fill="#abff21" stroke="none" /><path d="M 107.76421540070413 80.48803036053334 l 12.17320137852432 -30.59203325185173 a53.92505626850937,53.92505626850937 0 0,0 0.8595041031630442,0.35061330454299483 l -12.697989351275751 30.377959061125157" fill="#f5ff19" stroke="none" /><line stroke="#e1ed5e" stroke-width="0.3" x1="143.23703022742887" x2="145.7803849466894" y1="26.81831364943548" y2="22.513508569990506" /><path d="M 143.74570117128098 25.957352633546492 a86.0,86.0 0 0,1 28.547481713284135,27.462654790039103" fill="none" id="id26" stroke="none" /><text fill="#e1ed5e" style="font-size:6.75px; font-family:Arial;" text-anchor="middle"><textPath startOffset="19.985693538727396" xlink:href="#id26">February</textPath></text><line stroke="#e1ed5e" stroke-width="0.3" x1="172.23445277983987" x2="176.4835382374775" y1="55.19839476539836" y2="52.563006222186495" /><path d="M 173.08426987136738 54.67131705675599 a86.0,86.0 0 0,1 12.851231095245387,41.99856678651699" fill="none" id="id27" stroke="none" /><text fill="#e1ed5e" style="font-size:6.75px; font-family:Arial;" text-anchor="middle"><textPath startOffset="22.20632615414155" xlink:href="#id27">March</textPath></text><line stroke="#e1ed5e" stroke-width="0.3" x1="184.98032266829074" x2="189.97916517819016" y1="98.17113171792111" y2="98.06355123074" /><path d="M 185.9800911702706 98.14961562048488 a86.0,86.0 0 0,1 -9.607161424134198,41.387399972396054" fill="none" id="id28" stroke="none" /><text fill="#e1ed5e" style="font-size:6.75px; font-family:Arial;" text-anchor="middle"><textPath startOffset="21.466115282336823" xlink:href="#id28">April</textPath></text><line stroke="#e1ed5e" stroke-width="0.3" x1="174.80103733775053" x2="179.2010983576182" y1="140.37084112569926" y2="142.7455964860345" /><path d="M 175.68104954172406 140.8457921977663 a86.0,86.0 0 0,1 -30.038265399797805,32.042727171017184" fill="none" id="id29" stroke="none" /><text fill="#e1ed5e" style="font-size:6.75px; font-family:Arial;" text-anchor="middle"><textPath startOffset="22.206326154141568" xlink:href="#id29">May</textPath></text><line stroke="#e1ed5e" stroke-width="0.3" x1="143.8653032363475" x2="146.44561519142675" y1="172.8068346515853" y2="177.08958963109032" /><path d="M 144.38136562736335 173.6633856474863 a86.0,86.0 0 0,1 -40.68145358897372,12.25698825130547" fill="none" id="id30" stroke="none" /><text fill="#e1ed5e" style="font-size:6.75px; font-family:Arial;" text-anchor="middle"><textPath startOffset="21.466115282336833" xlink:href="#id30">June</textPath></text><line stroke="#e1ed5e" stroke-width="0.3" x1="102.19456741930631" x2="102.32365962044197" y1="184.97166512339345" y2="189.96999836594603" /><path d="M 102.22038585953345 185.97133177190398 a86.0,86.0 0 0,1 -42.740103519485714,-10.115201625700543" fill="none" id="id31" stroke="none" /><text fill="#e1ed5e" style="font-size:6.75px; font-family:Arial;" text-anchor="middle"><textPath startOffset="22.20632615414155" xlink:href="#id31">July</textPath></text><line stroke="#e1ed5e" stroke-width="0.3" x1="58.666819895761336" x2="56.23545636021788" y1="174.27360380694188" y2="178.64263932499728" /><path d="M 58.180547188652646 175.14741091055294 a86.0,86.0 0 0,1 -31.652253787137756,-30.449443065178592" fill="none" id="id32" stroke="none" /><text fill="#e1ed5e" style="font-size:6.75px; font-family:Arial;" text-anchor="middle"><textPath startOffset="22.20632615414155" xlink:href="#id32">August</textPath></text><line stroke="#e1ed5e" stroke-width="0.3" x1="26.63291911575756" x2="22.317208475507996" y1="142.92168965132927" y2="145.44649492493687" /><path d="M 25.769776987707644 143.4266507060508 a86.0,86.0 0 0,1 -11.730757126820373,-40.83630448921669" fill="none" id="id33" stroke="none" /><text fill="#e1ed5e" style="font-size:6.75px; font-family:Arial;" text-anchor="middle"><textPath startOffset="21.46611528233685" xlink:href="#id33">September</textPath></text><line stroke="#e1ed5e" stroke-width="0.3" x1="15.007084014347285" x2="10.007500721073583" y1="101.09737516637583" y2="101.16192664675087" /><path d="M 14.007167355692545 101.11028546245083 a86.0,86.0 0 0,1 10.666146001902534,-42.60595125391555" fill="none" id="id34" stroke="none" /><text fill="#e1ed5e" style="font-size:6.75px; font-family:Arial;" text-anchor="middle"><textPath startOffset="22.20632615414155" xlink:href="#id34">October</textPath></text><line stroke="#e1ed5e" stroke-width="0.3" x1="26.266209847984243" x2="21.928928074336255" y1="57.711370442889674" y2="55.22380399835377" /><path d="M 25.398753493254645 57.213857153982495 a86.0,86.0 0 0,1 29.58750427330803,-30.492523968695096" fill="none" id="id35" stroke="none" /><text fill="#e1ed5e" style="font-size:6.75px; font-family:Arial;" text-anchor="middle"><textPath startOffset="21.46611528233685" xlink:href="#id35">November</textPath></text><line stroke="#e1ed5e" stroke-width="0.3" x1="56.762969772571076" x2="54.21961505331055" y1="26.818313649435495" y2="22.513508569990535" /><path d="M 56.25429882871897 25.957352633546506 a86.0,86.0 0 0,1 42.265352541879196,-11.944610805530505" fill="none" id="id36" stroke="none" /><text fill="#e1ed5e" style="font-size:6.75px; font-family:Arial;" text-anchor="middle"><textPath startOffset="22.20632615414155" xlink:href="#id36">December</textPath></text></svg>