<?xml version="1.0" encoding="utf-8" ?>
<svg baseProfile="full" height="200mm" version="1.1" viewBox="0,0,200,200" width="200mm" xmlns="http://www.w3.org/2000/svg" xmlns:ev="http://www.w3.org/2001/xml-events" xmlns:xlink="http://www.w3.org/1999/xlink"><defs /><rect fill="#1a1a1a" height="200" width="200" x="0" y="0" /><rect fill="#1a1a1a" height="200" width="180" x="10" y="0" /><text alignment-baseline="middle" fill="#e1ed5e" style="dominant-baseline: central; font-size:9.0px; font-family:Arial;" text-anchor="middle" x="100.0" y="100.0">2025</text><line stroke="#e1ed5e" stroke-width="0.3" x1="100.0" x2="100.0" y1="15.0" y2="10.0" /><path d="M 100.0 14.0 a86.0,86.0 0 0,1 42.46469731375804,11.215312516191453" fill="none" id="id13" stroke="none" /><text fill="#e1ed5e" style="font-size:6.75px; font-family:Arial;" text-anchor="middle"><textPath startOffset="22.20632615414155" xlink:href="#id13">January</textPath></text><path d="M 100.0 79.0 l 0.0 -20.324042678520655 a41.324042678520655,41.324042678520655 0 0,0 0.7113254644242888,0.006122602845763693 l -0.3498449851517604 20.32103145228345" fill="#fff316" stroke="none" /><path d="M 100.72285384407766 79.0124445844662 l 0.7040367714560813 -20.44121488260431 a41.45333551410054,41.45333551410054 0 0,0 0.7129167689980148,0.03069969573331433 l -1.0557943728434276 20.426067460346804" fill="#fff517" stroke="none" /><path d="M 101.08401301168833 79.027996857942 l 2.0866884932306373 -40.370398846385314 a61.42429185383474,61.42429185383474 0 0,0 1.0554388392388305,0.06366695306133348 l -2.7812893813090795 40.32849862394367" fill="#30ff37" stroke="none" /><path d="M 101.80526077348638 79.07773832637324 l 1.3023330337620382 -15.093527161705206 a36.14960836166931,36.14960836166931 0 0,0 0.6194921768996756,0.05882824674998139 l -1.5619503377519581 15.068873370440047" fill="#ffb010" stroke="none" /><path d="M 102.16513564639614 79.11191278185805 l 1.575415717968355 -15.198780259578243 a36.28021125715764,36.28021125715764 0 0,0 0.6206218993939197,0.06973410168001633 l -1.8368043208719997 15.169410204427626" fill="#ffb210" stroke="none" /><path d="M 102.52436894288641 79.15227682838746 l 2.141842577824444 -17.688595506408237 a38.81779729982097,38.81779729982097 0 0,0 0.662648028750177,0.08603073225753878 l -2.446005335082467 17.64910645098656" fill="#ffd313" stroke="none" /><path d="M 103.2404852339499 79.25152402106235 l 3.3271871843427374 -21.303619176692624 a42.56187293778535,42.56187293778535 0 0,0 0.7228846194731536,0.11928215612750113 l -3.693401009954766 21.2431907576255" fill="#fbff18" stroke="none" /><path d="M 103.59715602781102 79.31037775812273 l 0.8711935190741369 -5.010809836954476 a26.085980079571343,26.085980079571343 0 0,0 0.4417286565289575,0.08072308852215081 l -0.9573172967059952 4.995071267081586" fill="#ff2303" stroke="none" /><path d="M 104.307194497241 79.44645832069477 l 4.667490819411118 -22.272843066639226 a43.756647574289715,43.756647574289715 0 0,0 0.7358561170242998,0.16082964577672546 l -5.050189660588946 22.18919992276663" fill="#edff1a" stroke="none" /><path d="M 104.66035177308747 79.52364482259891 l 4.479491325191329 -19.681702123515446 a41.18502516746652,41.18502516746652 0 0,0 0.6899007764650976,0.16327722398918065 l -4.817615788618951 19.601678987385398" fill="#fff116" stroke="none" /><path d="M 105.01212808612495 79.60689891045804 l 4.579747809195588 -18.63385341170342 a40.18839709211488,40.18839709211488 0 0,0 0.6703637275887824,0.17089064043341157 l -4.899820425469396 18.552259775101138" fill="#ffe515" stroke="none" /><path d="M 105.36241919743992 79.69619591428918 l 7.748282287139787 -29.337431440267785 a51.34338085832917,51.34338085832917 0 0,0 0.8525497752233477,0.2330340588228769 l -8.252129951586847 29.199710840618614" fill="#93ff23" stroke="none" /><path d="M 106.0581310904928 79.89281104454417 l 10.197367499149024 -33.845486684068234 a56.3483135777952,56.3483135777952 0 0,0 0.9262981938161022,0.2878053578072261 l -10.778451065675844 33.66494119137848" fill="#5dff2a" stroke="none" /><path d="M 106.74666289553966 80.11325718540242 l 6.87821565755724 -20.274513181266308 a42.40947769958919,42.40947769958919 0 0,0 0.6892913303403366,0.24048021056568447 l -7.22618899196085 20.153112117528416" fill="#fdff18" stroke="none" /><path d="M 107.08798089147638 80.2323363322302 l 7.18077249495382 -20.026450089011544 a42.27491943091573,42.27491943091573 0 0,0 0.6828761832146166,0.2515090613071199 l -7.524431003941014 19.899877759898096" fill="#ffff18" stroke="none" /><path d="M 107.4271985657038 80.35727306442388 l 4.945542324311103 -13.079485699137495 a34.98325194779436,34.98325194779436 0 0,0 0.5614259452126137,0.217824544467112 l -5.169951434523384 12.992418450779835" fill="#ffa00e" stroke="none" /><path d="M 108.09893153111575 80.62456947434976 l 12.639380946433473 -30.237747593491683 a53.773088506223786,53.773088506223786 0 0,0 0.8509367002093847,0.3643266864554356 l -13.158001404433174 30.01570137907346" fill="#78ff26" stroke="none" /><path d="M 108.43124777332544 80.76684994638697 l 10.168419637107107 -23.19594275325748 a46.32683395390556,46.32683395390556 0 0,0 0.7275913444199223,0.3264490274625944 l -10.56619309999381 23.017473395278355" fill="#cdff1d" stroke="none" /><path d="M 109.41281617654863 81.2277094730956 l 9.085316366922958 -18.119146828091285 a41.269347677342964,41.269347677342964 0 0,0 0.632284752344688,0.32388080822396736 l -9.395861606856402 17.960073494554816" fill="#fff216" stroke="none" /><line stroke="#e1ed5e" stroke-width="0.3" x1="143.23703022742887" x2="145.7803849466894" y1="26.81831364943548" y2="22.513508569990506" /><path d="M 143.74570117128098 25.957352633546492 a86.0,86.0 0 0,1 28.547481713284135,27.462654790039103" fill="none" id="id14" stroke="none" /><text fill="#e1ed5e" style="font-size:6.75px; font-family:Arial;" text-anchor="middle"><textPath startOffset="19.985693538727396" xlink:href="#id14">February</textPath></text><path d="M 110.68208982089419 81.91981866633111 l 11.699850134427654 -19.802811580318156 a44.00082258645655,44.00082258645655 0 0,0 0.6487773233521292,0.39088107810064004 l -12.038989523997422 19.598483892758903" fill="#eaff1a" stroke="none" /><path d="M 111.2981086023043 82.29822771554956 l 10.986312035591562 -17.213252301389158 a41.420458049090456,41.420458049090456 0 0,0 0.5977030759996825,0.3887627068228984 l -11.280982137375524 17.02159067040673" fill="#fff417" stroke="none" /><path d="M 111.60114157652 82.49532879139004 l 11.648536177819803 -17.576183732385655 a42.08579212836347,42.08579212836347 0 0,0 0.6004145597066576,0.4054025909067776 l -11.949355431933004 17.373069229180206" fill="#fffd17" stroke="none" /><path d="M 112.77801427241765 83.33499621200491 l 12.842725782408008 -16.749400121895277 a42.10634999154219,42.10634999154219 0 0,0 0.5713780461263105,0.44596962804997614 l -13.12913638369375 16.52585210462208" fill="#fffd17" stroke="none" /><path d="M 113.34407831869373 83.78471172551755 l 15.188290285674642 -18.45631444126931 a44.90229496422728,44.90229496422728 0 0,0 0.5925872677416272,0.4962747948361183 l -15.503735090375386 18.192138489039372" fill="#dfff1b" stroke="none" /><path d="M 113.89432698308785 84.25364557470407 l 8.34695088887911 -9.459547571236147 a33.61565017721399,33.61565017721399 0 0,0 0.43058288297559405,0.3865815637457963 l -8.508544759450695 9.314466998721052" fill="#ff8e0d" stroke="none" /><path d="M 114.68862486808459 84.99185889309783 l 14.99526725276692 -15.321453770272656 a42.43839979141415,42.43839979141415 0 0,0 0.517676129749851,0.5154530639317728 l -15.256779182684095 15.061064855690766" fill="#fdff18" stroke="none" /><path d="M 115.19652480421416 85.50635884689758 l 14.767571400585636 -14.084528097078602 a41.40723148270709,41.40723148270709 0 0,0 0.4874867013932682,0.5200168240190337 l -15.007825423949367 13.828241856181513" fill="#fff417" stroke="none" /><path d="M 115.4437574822437 85.77008943001954 l 11.381361806487034 -10.48681066489867 a36.476065213470584,36.476065213470584 0 0,0 0.42148329473108753,0.46541238120588596 l -11.560188741834157 10.289345496423236" fill="#ffb410" stroke="none" /><path d="M 115.9244219780498 86.31012108654704 l 13.42909497340706 -11.544700608700955 a38.709339455477355,38.709339455477355 0 0,0 0.43002276447082094,0.5090113169713802 l -13.625828351365 11.311830342100468" fill="#ffd213" stroke="none" /><path d="M 116.15771136456269 86.58626213691792 l 10.241556505023144 -8.502290402935511 a34.310838506323755,34.310838506323755 0 0,0 0.3733370636579902,0.45766709617339174 l -10.386392060757544 8.324739137154019" fill="#ff970e" stroke="none" /><path d="M 116.38621287248628 86.86637796730983 l 17.730319936054336 -14.21092978413606 a43.722560823210294,43.722560823210294 0 0,0 0.46563677686158067,0.5913114204591727 l -17.97231079350988 13.903625969723848" fill="#edff1a" stroke="none" /><path d="M 117.45458315368197 88.32363383020206 l 3.9744240985866095 -2.658718955392357 a25.781718665834347,25.781718665834347 0 0,0 0.24357998712175835,0.37098903144879825 l -4.0196007210662925 2.589911859965885" fill="#ff1e03" stroke="none" /><path d="M 117.65298651832404 88.62581576622439 l 8.555840849879754 -5.512705173166059 a31.178031782949144,31.178031782949144 0 0,0 0.2867969211348704,0.45364385480577873 l -8.64946536726058 5.364613670646074" fill="#ff6c0a" stroke="none" /><line stroke="#e1ed5e" stroke-width="0.3" x1="172.23445277983987" x2="176.4835382374775" y1="55.19839476539836" y2="52.563006222186495" /><path d="M 173.08426987136738 54.67131705675599 a86.0,86.0 0 0,1 12.851231095245387,41.99856678651699" fill="none" id="id15" stroke="none" /><text fill="#e1ed5e" style="font-size:6.75px; font-family:Arial;" text-anchor="middle"><textPath startOffset="22.20632615414155" xlink:href="#id15">March</textPath></text><path d="M 117.84615892207809 88.93136811851018 l 14.999493291213316 -9.3030590153449 a38.65026079229832,38.65026079229832 0 0,0 0.34579873309477277,0.5684021955529772 l -15.157407822594314 9.04348904658484" fill="#ffd113" stroke="none" /><path d="M 118.03404312379186 89.2402003453031 l 4.342321524376794 -2.5907950489999942 a26.05647853817149,26.05647853817149 0 0,0 0.22649324164355972,0.38715036883182774 l -4.386274440490681 2.515665267814271" fill="#ff2203" stroke="none" /><path d="M 118.21658344932153 89.55222093294921 l 26.264475309183695 -15.063496187732278 a51.27757554138945,51.27757554138945 0 0,0 0.4325443181051036,0.7694480773169573 l -26.51987726858123 14.609164600480527" fill="#94ff23" stroke="none" /><path d="M 118.3937258080291 89.86733742301442 l 14.162832501471758 -7.801964885718548 a37.16961596769478,37.16961596769478 0 0,0 0.30389152461015323,0.563064841978724 l -14.295032125300377 7.557019060407366" fill="#ffbe11" stroke="none" /><path d="M 118.56541770881063 90.18545643968196 l 20.19131136577493 -10.674066592387932 a43.83910576814259,43.83910576814259 0 0,0 0.3469355160648204,0.6701689896803633 l -20.372056314999867 10.324924880447224" fill="#ecff1a" stroke="none" /><path d="M 119.196687751892 91.48605970444005 l 6.983170761024868 -3.09711236133462 a28.63916087383715,28.63916087383715 0 0,0 0.19598635618478133,0.4523635314368419 l -7.035447827052331 2.976449685311175" fill="#ff4806" stroke="none" /><path d="M 119.34039704204932 91.81776055985345 l 32.626871896115375 -13.803278053526288 a56.42658965732496,56.42658965732496 0 0,0 0.37074503122297325,0.8977885003385193 l -32.85963861422455 13.239614982734466" fill="#5cff2a" stroke="none" /><path d="M 119.7369772167798 92.82701384747503 l 10.893167775940821 -3.958891007257449 a32.59025117079606,32.59025117079606 0 0,0 0.18707877972733153,0.5288969025885762 l -10.959699636477962 3.770796478242258" fill="#ff800b" stroke="none" /><path d="M 119.85752413597 93.16781622104841 l 5.0934194567493405 -1.752442930625166 a26.38646247434166,26.38646247434166 0 0,0 0.1440734854808405,0.4307613835683501 l -5.122830236001951 1.664508444134502" fill="#ff2703" stroke="none" /><path d="M 119.97218684219823 93.5106431181261 l 19.198082093668393 -6.237835002129134 a41.18605809931742,41.18605809931742 0 0,0 0.21327418873832507,0.6761374607281673 l -19.302611766174927 5.906447374974547" fill="#fff116" stroke="none" /><path d="M 120.08093135843002 93.85539295169968 l 4.946384304685184 -1.5135546912474924 a26.172771548506006,26.172771548506006 0 0,0 0.12811459863947797,0.43193873743374767 l -4.971704800436364 1.428186567067215" fill="#ff2403" stroke="none" /><path d="M 120.18372546131832 94.20196356495316 l 51.1204537125863 -14.685012128694583 a74.18787802686421,74.18787802686421 0 0,0 0.3420175265052131,1.230419016194777 l -51.36565800965787 13.802881809080853" fill="#40ffca" stroke="none" /><path d="M 120.67395015179393 96.31383870115 l 12.430119840498524 -2.2162879546334406 a33.626155849941355,33.626155849941355 0 0,0 0.09669623600042006,0.5707066585345536 l -12.466427938019166 2.0019955077830494" fill="#ff8e0d" stroke="none" /><path d="M 120.73433829027371 96.67025291283417 l 7.478170254865666 -1.2009264667563402 a28.573985393391876,28.573985393391876 0 0,0 0.07380810993062083,0.486303225813997 l -7.497734258235587 1.0720241285502612" fill="#ff4706" stroke="none" /><path d="M 120.78858239683441 97.02765380044208 l 15.023276420786175 -2.148024224154483 a36.17606149443604,36.17606149443604 0 0,0 0.08283284642772563,0.6172009185617715 l -15.058025266271736 1.889104963528047" fill="#ffb010" stroke="none" /><path d="M 120.83666639777658 97.38593545837742 l 15.004005646462327 -1.8823279306764398 a36.12161842785613,36.12161842785613 0 0,0 0.07208782272621467,0.6176044418267682 l -15.03418382219213 1.623779750524819" fill="#ffb010" stroke="none" /><path d="M 120.96714384426684 98.82574320788733 l 53.545158992548416 -2.9987759467270094 a74.62906589449379,74.62906589449379 0 0,0 0.06079209706473417,1.283225086552476 l -53.588844697846646 2.0766397535515337" fill="#41ffcf" stroke="none" /><line stroke="#e1ed5e" stroke-width="0.3" x1="184.98032266829074" x2="189.97916517819016" y1="98.17113171792111" y2="98.06355123074" /><path d="M 185.9800911702706 98.14961562048488 a86.0,86.0 0 0,1 -9.607161424134198,41.387399972396054" fill="none" id="id16" stroke="none" /><text fill="#e1ed5e" style="font-size:6.75px; font-family:Arial;" text-anchor="middle"><textPath startOffset="21.466115282336823" xlink:href="#id16">April</textPath></text><path d="M 120.99980553446 99.90962569577887 l 13.24027498321026 -0.056980558098050575 a34.240397592784916,34.240397592784916 0 0,0 -0.0025365656830280948,0.5894085329680532 l -13.239294120237728 -0.17093745307368732" fill="#ff960d" stroke="none" /><path d="M 120.99824983174949 100.27111621757518 l 17.665819155261463 0.2280899650265138 a38.66729157110814,38.66729157110814 0 0,0 -0.014321512856219937,0.6654644271243586 l -17.659275579720237 -0.5321442079409873" fill="#ffd113" stroke="none" /><path d="M 120.92983693683757 101.71520430193887 l 12.559137538971461 1.0292238205435658 a33.60123951822107,33.60123951822107 0 0,0 -0.05220257166060253,0.5760510283046119 l -12.539560371033783 -1.2452562373967482" fill="#ff8e0d" stroke="none" /><path d="M 120.76222939487914 103.15116336523771 l 5.771182232694043 0.8759145118713328 a26.83727424360636,26.83727424360636 0 0,0 -0.07325073701754746,0.4561324093315568 l -5.755249741315207 -0.9751261508960946" fill="#ff2e04" stroke="none" /><path d="M 120.5718875245553 104.21870165774334 l 12.356587973390175 2.533980321697262 a33.61373547427088,33.61373547427088 0 0,0 -0.12111502889157116,0.5658090937121544 l -12.311138905774161 -2.7463032348255854" fill="#ff8e0d" stroke="none" /><path d="M 120.41448212921028 104.9243191809786 l 10.221939758853573 2.465705164732368 a31.515120274776667,31.515120274776667 0 0,0 -0.1317462375597964,0.526260729447946 l -10.177982206998715 -2.6412937335777102" fill="#ff710a" stroke="none" /><path d="M 120.23288151984713 105.62410040840565 l 19.52671066848445 5.427807271925956 a41.267055072503176,41.267055072503176 0 0,0 -0.19613123572679322,0.682758561565807 l -19.430386795871556 -5.763123308996345" fill="#fff216" stroke="none" /><path d="M 120.13307415673323 105.97154293290107 l 12.240807707344125 3.6306680335424946 a33.767894254651495,33.767894254651495 0 0,0 -0.17008281718981463,0.5558404875022561 l -12.176498117648178 -3.8408354935968076" fill="#ff900d" stroke="none" /><path d="M 119.9155931802556 106.66101706037122 l 18.189534593556534 6.083715365707104 a40.17995728308931,40.17995728308931 0 0,0 -0.22502530422860076,0.6540288660983713 l -18.082118458384702 -6.3959169348947755" fill="#ffe515" stroke="none" /><path d="M 119.79798401119884 107.00284435728193 l 11.727332383890888 4.148133636437206 a33.439346345688655,33.439346345688655 0 0,0 -0.196616571501718,0.5410043613153667 l -11.654191551383944 -4.349385794758703" fill="#ff8b0c" stroke="none" /><path d="M 119.54520255179757 107.68017299344265 l 12.914986351505583 5.074868327644482 a34.876280517577634,34.876280517577634 0 0,0 -0.2243663963024083,0.5568589954683404 l -12.825717340945783 -5.296426690955635" fill="#ff9f0e" stroke="none" /><path d="M 119.12269723197855 108.67885076344098 l 34.896395657422616 15.837755857280035 a59.32222515035097,59.32222515035097 0 0,0 -0.4300165930202842,0.9262174852936732 l -34.6186044475625 -16.43609340985254" fill="#3eff2d" stroke="none" /><path d="M 118.81262510543309 109.33194174019688 l 22.580530645527137 11.20099907725974 a46.20600612081104,46.20600612081104 0 0,0 -0.35957366591079687,0.7094729556045261 l -22.38437830983007 -11.58802624456696" fill="#cfff1d" stroke="none" /><line stroke="#e1ed5e" stroke-width="0.3" x1="174.80103733775053" x2="179.2010983576182" y1="140.37084112569926" y2="142.7455964860345" /><path d="M 175.68104954172406 140.8457921977663 a86.0,86.0 0 0,1 -30.038265399797805,32.042727171017184" fill="none" id="id17" stroke="none" /><text fill="#e1ed5e" style="font-size:6.75px; font-family:Arial;" text-anchor="middle"><textPath startOffset="22.206326154141568" xlink:href="#id17">May</textPath></text><path d="M 118.48025628344425 109.97397251340804 l 26.669356148705624 14.393708674688591 a51.30566624904175,51.30566624904175 0 0,0 -0.42613897726858874,0.7735660241756819 l -26.417640761985528 -14.850645217262079" fill="#94ff23" stroke="none" /><path d="M 118.30583269289576 110.29060199501025 l 2.390004147286315 1.3435379782364187 a23.741753840702952,23.741753840702952 0 0,0 -0.20332890648057153,0.3545210870934081 l -2.3665232446533637 -1.384478911188142" fill="#ff0000" stroke="none" /><path d="M 117.94076556474637 110.91462005526583 l 34.48235676237125 20.978024673091987 a61.36224036240192,61.36224036240192 0 0,0 -0.556746503725301,0.8976526359512266 l -34.11614561897799 -21.568473640408488" fill="#30ff36" stroke="none" /><path d="M 117.75023020441432 111.22182372390056 l 4.9052452314421275 3.101131460033566 a26.80331345982583,26.80331345982583 0 0,0 -0.2499027819435402,0.3878546671893171 l -4.851137586121537 -3.185107727144336" fill="#ff2d04" stroke="none" /><path d="M 117.55443506779139 111.5257021239791 l 25.29465481436596 16.60769233492263 a51.25946144380919,51.25946144380919 0 0,0 -0.49061869373926303,0.7334083791216844 l -25.005033015215975 -17.040637628250117" fill="#94ff23" stroke="none" /><path d="M 117.14729908036423 112.12312394758627 l 18.524027552957538 13.096469652772699 a43.6860554999922,43.6860554999922 0 0,0 -0.43939893871425195,0.6102866949568806 l -18.295848821867683 -13.413389953180712" fill="#edff19" stroke="none" /><path d="M 116.93607887273984 112.41649034213515 l 20.334782455846284 14.908210564538328 a46.21424438215839,46.21424438215839 0 0,0 -0.4758718888495899,0.6375081609866801 l -20.0751493003016 -15.256031605034323" fill="#cfff1d" stroke="none" /><path d="M 116.498646956653 112.99209946851258 l 6.798343877418653 5.353454747448854 a29.653147242975724,29.653147242975724 0 0,0 -0.3192402591827049,0.39830130876425224 l -6.705185706181095 -5.469683889791357" fill="#ff5708" stroke="none" /><path d="M 116.0416608686014 113.55231037782055 l 5.9404879516524804 5.0186409733967245 a28.776641583844835,28.776641583844835 0 0,0 -0.3229252923157164,0.37563506987393086 l -5.853220149765986 -5.120153142432184" fill="#ff4a06" stroke="none" /><path d="M 115.80600337817218 113.82643327865902 l 28.79756173659199 25.190907303544925 a59.26070272157348,59.26070272157348 0 0,0 -0.6782278791786105,0.7619962121015511 l -28.359675007765045 -25.682877685387343" fill="#3fff2d" stroke="none" /><path d="M 115.56566222782051 114.09645910891815 l 11.966377227944525 10.836901431287725 a37.144120186399604,37.144120186399604 0 0,0 -0.43326598388081883,0.47022465443155925 l -11.778064836067983 -11.041277340520619" fill="#ffbd11" stroke="none" /><path d="M 114.55890576462653 115.13401014063108 l 13.503903564879003 14.037333354099466 a40.47824784685895,40.47824784685895 0 0,0 -0.5062945331436807,0.4787330823987498 l -13.260273197344516 -14.267701073244138" fill="#ffe815" stroke="none" /><path d="M 114.0293411484842 115.62618273729858 l 4.554257020519482 5.072629689595327 a27.817098281286178,27.817098281286178 0 0,0 -0.35904939090912547,0.316819341520452 l -4.466265276703768 -5.150272172888068" fill="#ff3c05" stroke="none" /><path d="M 113.75828350139079 115.86535959552629 l 9.037556038294879 10.421654445321893 a34.79450254713876,34.79450254713876 0 0,0 -0.4558651845736066,0.38849820007759955 l -8.856825377144226 -10.575677035622439" fill="#ff9e0e" stroke="none" /><path d="M 113.48314897796784 116.09983520530334 l 22.654546243318926 27.051133363901375 a56.284448157258375,56.284448157258375 0 0,0 -0.7481271799556442,0.6156577368643972 l -22.185548934818588 -27.43708621962295" fill="#5eff2a" stroke="none" /><path d="M 113.20401910651253 116.32954008644616 l 16.154530998590747 19.97846711605517 a46.6925674095005,46.6925674095005 0 0,0 -0.6293324452880533,0.49997975611553286 l -15.808241060585342 -20.253580786175828" fill="#c9ff1d" stroke="none" /><path d="M 112.63410532772338 116.77436683061366 l 15.645895560521787 20.77313626234861 a47.006100016435724,47.006100016435724 0 0,0 -0.6505085307992569,0.48123065962271716 l -15.286002059303964 -21.0393768707111" fill="#c5ff1e" stroke="none" /><path d="M 112.34349029814194 116.9893568818739 l 10.067067727350834 13.856130012084508 a38.127118600011435,38.127118600011435 0 0,0 -0.5342747177070409,0.3811908252103999 l -9.827065681794908 -14.027365099139127" fill="#ffca12" stroke="none" /><path d="M 111.7513745106137 117.40417183066458 l 2.828677020214644 4.189363624553303 a26.054916543665264,26.054916543665264 0 0,0 -0.37385740842023946,0.2477723044795476 l -2.7561449130544404 -4.237433950124169" fill="#ff2203" stroke="none" /><path d="M 111.45004920935366 117.60387380957326 l 16.539836560827087 25.42916544060878 a51.334941049303595,51.334941049303595 0 0,0 -0.74489003469385,0.4754240633938053 l -16.099664724086306 -25.710103932826396" fill="#93ff23" stroke="none" /><path d="M 111.1453310114006 117.79835938074945 l 9.381442894459402 14.981546261368834 a38.67648718392705,38.67648718392705 0 0,0 -0.5672934536286199,0.3484779732268296 l -9.122170240898473 -15.140812701424043" fill="#ffd113" stroke="none" /><line stroke="#e1ed5e" stroke-width="0.3" x1="143.8653032363475" x2="146.44561519142675" y1="172.8068346515853" y2="177.08958963109032" /><path d="M 144.38136562736335 173.6633856474863 a86.0,86.0 0 0,1 -40.68145358897372,12.25698825130547" fill="none" id="id18" stroke="none" /><text fill="#e1ed5e" style="font-size:6.75px; font-family:Arial;" text-anchor="middle"><textPath startOffset="21.466115282336833" xlink:href="#id18">June</textPath></text><path d="M 110.5260780823613 118.17145234162733 l 30.62497061558506 52.86871232100938 a82.09819610829028,82.09819610829028 0 0,0 -1.2289366276279174,0.6978222904429319 l -29.710385221035946 -53.38803777724694" fill="#4be4ff" stroke="none" /><path d="M 109.89434966115114 118.52300852407294 l 7.135697911724544 13.358593315440352 a36.144972765070186,36.144972765070186 0 0,0 -0.5513125525992394,0.2884206708795332 l -6.9046944565988095 -13.479443405264602" fill="#ffb010" stroke="none" /><path d="M 109.57404056367764 118.69057910512821 l 14.702518441001411 28.702467065857718 a53.24896376900556,53.24896376900556 0 0,0 -0.8193902172331625,0.4108592651825866 l -14.206274316085489 -28.951294171949606" fill="#7eff26" stroke="none" /><path d="M 108.59647513512805 119.15986991738527 l 8.625870887542913 19.225387328130868 a42.071809758186774,42.071809758186774 0 0,0 -0.6632907805079908,0.290767185855484 l -8.293659432377167 -19.371019067280805" fill="#fffd17" stroke="none" /><path d="M 108.2653958097858 119.30500536409082 l 7.955090915329003 18.5802442286471 a41.21160426753215,41.21160426753215 0 0,0 -0.6545355344342001,0.2735959064778993 l -7.634083921397342 -18.71442517814497" fill="#fff216" stroke="none" /><path d="M 107.59598834532513 119.57807347666477 l 10.049581804488959 25.902021176628956 a48.78324666916468,48.78324666916468 0 0,0 -0.7854794488972244,0.29700111676821783 l -9.602232134831459 -26.071170543503804" fill="#b1ff20" stroke="none" /><path d="M 106.91757812671514 119.82793768551818 l 10.798198127631558 30.951005636452056 a53.780570963777805,53.780570963777805 0 0,0 -0.8767008200389749,0.2974245178403184 l -10.263827574655357 -31.132293141190495" fill="#78ff26" stroke="none" /><path d="M 106.57524785965236 119.94407469862006 l 6.319608094671762 19.168666884718977 a41.18353875333963,41.18353875333963 0 0,0 -0.6751720631616619,0.2161687733933469 l -5.98871468641916 -19.27460850477203" fill="#fff116" stroke="none" /><path d="M 106.2309692047433 120.05430185196036 l 7.49034485300956 24.107587715757234 a46.244426146972245,46.244426146972245 0 0,0 -0.7622072943865206,0.22964680531688256 l -7.074262584182794 -24.232949890179842" fill="#ceff1d" stroke="none" /><path d="M 105.18746579009965 120.34920634021253 l 5.065801501699501 19.87194599593905 a41.50747625916312,41.50747625916312 0 0,0 -0.6938601523513505,0.1705339439143271 l -4.722988064604939 -19.956201198167406" fill="#fff517" stroke="none" /><path d="M 104.48393922423573 120.51570834832081 l 7.546549925587231 34.528304146624286 a56.34337565967875,56.34337565967875 0 0,0 -0.9492746381088806,0.19892973004014056 l -6.951083826048972 -34.65308985739097" fill="#5dff2a" stroke="none" /><path d="M 103.7750983002368 120.6578951692458 l 11.32529490071043 61.973685507737414 a84.0,84.0 0 0,0 -1.4246041141118002,0.24768568591597528 l -10.256841815126581 -62.15944977217439" fill="#4dd2ff" stroke="none" /><path d="M 103.06178313531738 120.77559828337769 l 1.8732257876261824 12.710693324055839 a33.84798426328525,33.84798426328525 0 0,0 -0.5771426386019305,0.07998671077452765 l -1.6541545578374215 -12.741054600322968" fill="#ff910d" stroke="none" /><path d="M 102.34483914955558 120.86867818915974 l 3.34973297387351 29.81206598526477 a50.99966648658008,50.99966648658008 0 0,0 -0.8732294120266604,0.09051379897621584 l -2.8360709652412472 -29.865309152696742" fill="#97ff23" stroke="none" /><path d="M 101.98527174616119 120.90594882070398 l 1.6688031156009808 17.57336878140046 a38.652427429839214,38.652427429839214 0 0,0 -0.6628995891399663,0.0571977658869978 l -1.366059208719473 -17.599490799566123" fill="#ffd113" stroke="none" /><path d="M 101.62511606390274 120.93702456842531 l 2.5358839414321914 32.67081383525037 a53.7690827461191,53.7690827461191 0 0,0 -0.9233873122385545,0.06368219532080144 l -1.9731338684147066 -32.70962437508746" fill="#78ff26" stroke="none" /><path d="M 101.26447882468166 120.96189622390904 l 2.7302908330114204 45.261393062144734 a66.34366758389521,66.34366758389521 0 0,0 -1.1405169325236204,0.058951697962844135 l -1.9507858320743205 -45.30168456686978" fill="#36ff73" stroke="none" /><line stroke="#e1ed5e" stroke-width="0.3" x1="102.19456741930631" x2="102.32365962044197" y1="184.97166512339345" y2="189.96999836594603" /><path d="M 102.22038585953345 185.97133177190398 a86.0,86.0 0 0,1 -42.740103519485714,-10.115201625700543" fill="none" id="id19" stroke="none" /><text fill="#e1ed5e" style="font-size:6.75px; font-family:Arial;" text-anchor="middle"><textPath startOffset="22.20632615414155" xlink:href="#id19">July</textPath></text><path d="M 100.54218724476979 120.99299961872073 l 0.7224274726629961 27.9717381854066 a48.98106571534029,48.98106571534029 0 0,0 -0.8430348372162003,0.01451360925260375 l -0.2408329455541279 -27.980029271938363" fill="#aeff20" stroke="none" /><path d="M 100.18074693466247 120.99922214144158 l 0.17700131226557952 20.56405483463777 a41.56481657361749,41.56481657361749 0 0,0 -0.7154964938560557,0.0 l 0.17700131226556534 -20.56405483463777" fill="#fff617" stroke="none" /><path d="M 99.81925306533755 120.99922214144158 l -0.2797190849602606 32.49783025781866 a53.49903405076042,53.49903405076042 0 0,0 -0.9207955932261697,-0.015852331186850845 l 0.8390743680790982 -32.488200449352654" fill="#7bff26" stroke="none" /><path d="M 99.09653310690486 120.98055641714683 l -2.061734927582592 47.87817494580149 a68.92254570713442,68.92254570713442 0 0,0 -1.1848505407424854,-0.06124323911124288 l 2.8855735367385664 -47.83559189992805" fill="#3aff90" stroke="none" /><path d="M 98.73552117531835 120.96189622390904 l -1.3668239557403217 22.6585225132535 a43.69971035519179,43.69971035519179 0 0,0 -0.7504639474884176,-0.051756387652021715 l 1.7566506640076693 -22.631637781085196" fill="#edff1a" stroke="none" /><path d="M 98.01472825383883 120.90594882070398 l -1.79387135580711 18.890402700762362 a39.975386389693234,39.975386389693234 0 0,0 -0.6844688516109572,-0.07094799509375493 l 2.1187728040236604 -18.856725337212847" fill="#ffe215" stroke="none" /><path d="M 96.58105272829116 120.7198165907248 l -3.3242328306786852 20.145819482645074 a41.41824102463001,41.41824102463001 0 0,0 -0.7024356733685958,-0.12212744568593654 l 3.670517475519331 -20.085613458438132" fill="#fff417" stroke="none" /><path d="M 95.51606077576429 120.51570834832081 l -3.371377105055688 15.425318221461398 a36.789446659647155,36.789446659647155 0 0,0 -0.6175018410719846,-0.1405414086145884 l 3.6363990955205354 -15.365000079269123" fill="#ffb911" stroke="none" /><path d="M 95.16358092515715 120.4354850818985 l -6.008545960853238 25.388112454028306 a47.089439981380835,47.089439981380835 0 0,0 -0.7871711061307369,-0.19346750610907368 l 6.4446703517271855 -25.2809236896052" fill="#c4ff1e" stroke="none" /><path d="M 93.76903079525671 120.05430185196036 l -5.0869636484606895 16.372333286211955 a38.14440131341904,38.14440131341904 0 0,0 -0.6253477703092988,-0.20021660822133003 l 5.368032763860929 -16.28234383133092" fill="#ffca12" stroke="none" /><path d="M 93.42475214034765 119.94407469862007 l -9.476611813384721 28.74450635629168 a51.26636445178832,51.26636445178832 0 0,0 -0.8357156301961052,-0.2835201161915685 l 9.969997176518053 -28.577123253201986" fill="#94ff23" stroke="none" /><path d="M 93.08242187328487 119.8279376855182 l -5.880719709902985 16.855977889667113 a38.85236272663616,38.85236272663616 0 0,0 -0.6295570980568087,-0.2257367767944937 l 6.169996368589521 -16.75225357183266" fill="#ffd413" stroke="none" /><path d="M 92.7421414339146 119.70592522655815 l -7.0850328531700235 19.236683432311683 a41.49994341468955,41.49994341468955 0 0,0 -0.6682079383461774,-0.2526590660020839 l 7.415111012276483 -19.111876116202964" fill="#fff517" stroke="none" /><path d="M 91.7346041902142 119.30500536409082 l -8.207827395018654 19.17054615833009 a41.85373517034978,41.85373517034978 0 0,0 -0.6598526858691851,-0.28926002620211483 l 8.536600755545582 -19.026421578833524" fill="#fffa17" stroke="none" /><path d="M 91.07499286063937 119.00905698771935 l -8.136787340537856 17.330255521153326 a40.14536666281433,40.14536666281433 0 0,0 -0.6229936397093614,-0.2990748063216351 l 8.433893648247459 -17.187626438332128" fill="#ffe415" stroke="none" /><path d="M 90.7491055286396 118.85261126421891 l -9.022741533970054 18.387653129551403 a41.48208125170706,41.48208125170706 0 0,0 -0.6383224979845409,-0.32006815184713594 l 9.337917939637356 -18.229617136794964" fill="#fff517" stroke="none" /><path d="M 90.42595943632237 118.69057910512821 l -13.814879157597492 26.969604944276387 a51.30198800391418,51.30198800391418 0 0,0 -0.7824996893395382,-0.40936685424319375 l 14.277069749463525 -26.72780867108848" fill="#94ff23" stroke="none" /><path d="M 90.10565033884886 118.52300852407294 l -12.139329097486359 22.725788359000234 a46.76479705868357,46.76479705868357 0 0,0 -0.7067657044770791,-0.38538501426488564 l 12.528717613832079 -22.513462692975583" fill="#c8ff1d" stroke="none" /><line stroke="#e1ed5e" stroke-width="0.3" x1="58.666819895761336" x2="56.23545636021788" y1="174.27360380694188" y2="178.64263932499728" /><path d="M 58.180547188652646 175.14741091055294 a86.0,86.0 0 0,1 -31.652253787137756,-30.449443065178592" fill="none" id="id20" stroke="none" /><text fill="#e1ed5e" style="font-size:6.75px; font-family:Arial;" text-anchor="middle"><textPath startOffset="22.20632615414155" xlink:href="#id20">August</textPath></text><path d="M 89.4739219176387 118.17145234162733 l -15.163241107007387 26.176711873562166 a51.25134914976073,51.25134914976073 0 0,0 -0.759574595645131,-0.4487700596918824 l 15.611583573680901 -25.91182324157653" fill="#94ff23" stroke="none" /><path d="M 89.1626897886671 117.98757091392108 l -10.536787251375445 17.48876835608312 a41.41766157505512,41.41766157505512 0 0,0 -0.6075000597753025,-0.3731761546190262 l 10.836266511083055 -17.304803734635716" fill="#fff417" stroke="none" /><path d="M 88.54995079064634 117.60387380957326 l -11.282839458194202 17.346797241139225 a41.69332841194426,41.69332841194426 0 0,0 -0.5982502259172768,-0.3964876281502298 l 11.57976438285144 -17.150011591897677" fill="#fff817" stroke="none" /><path d="M 88.24862548938628 117.40417183066458 l -17.002302308925483 25.1809684589816 a51.38353923321506,51.38353923321506 0 0,0 -0.7287730192534627,-0.5012567279497044 l 17.433232212801833 -24.884570941666794" fill="#93ff23" stroke="none" /><path d="M 87.36589467227662 116.77436683061367 l -28.808666651925822 38.24941535510772 a68.88483109784698,68.88483109784698 0 0,0 -0.941003765930989,-0.721521561256814 l 29.462799146350296 -37.747854452023546" fill="#3aff90" stroke="none" /><path d="M 87.07902340077011 116.55440617244103 l -12.64368173290747 16.199134896204253 a41.549322595854115,41.549322595854115 0 0,0 -0.5600106877821845,-0.4449063594222809 l 12.920649913407013 -15.979094622776842" fill="#fff617" stroke="none" /><path d="M 86.51685102203217 116.09983520530335 l -21.041743904409387 25.125333098874215 a53.77250905664889,53.77250905664889 0 0,0 -0.704508269169381,-0.6003972309666482 l 21.471117650155826 -24.759411477684615" fill="#78ff26" stroke="none" /><path d="M 86.24171649860922 115.8653595955263 l -23.120181168874907 26.661028472108185 a56.289562429593275,56.289562429593275 0 0,0 -0.7265579213372997,-0.6411028901391775 l 23.575681443118796 -26.25910244019672" fill="#5dff2a" stroke="none" /><path d="M 85.70375840098266 115.38237550388516 l -14.536018820412414 15.640369413069712 a42.35221296551415,42.35221296551415 0 0,0 -0.5297337466804379,-0.5008963217996962 l 14.803088401483668 -15.387838454524084" fill="#feff18" stroke="none" /><path d="M 85.18274418774928 114.88116024355367 l -37.69765228647272 37.86023617254095 a74.42761899011016,74.42761899011016 0 0,0 -0.9000757903492047,-0.9117720235995734 l 38.34376870187745 -37.20572365496071" fill="#41ffcd" stroke="none" /><path d="M 84.67929136418377 114.36230785411682 l -15.681368670577047 14.700406474294345 a42.494354465580734,42.494354465580734 0 0,0 -0.4956735602974636,-0.5379557529857875 l 15.93208863887024 -14.428299466507212" fill="#fcff18" stroke="none" /><path d="M 84.19399662182784 113.82643327865904 l -14.260147628647617 12.47418306917538 a39.946161976350936,39.946161976350936 0 0,0 -0.4482672516012401,-0.5214360856343189 l 14.472757389819636 -12.226869884379532" fill="#ffe215" stroke="none" /><path d="M 83.95833913139862 113.55231037782056 l -13.69171842990405 11.567032820833067 a38.92371060472701,38.92371060472701 0 0,0 -0.427982879886564,-0.5155329493365017 l 13.88879730968415 -11.329638614382803" fill="#ffd413" stroke="none" /><path d="M 83.72743513129214 113.27417163493432 l -41.41459704499245 33.78351684583126 a74.44618656996644,74.44618656996644 0 0,0 -0.8014737761567325,-0.9999617679822623 l 41.98998873320404 -33.065627244270736" fill="#41ffcd" stroke="none" /><path d="M 83.06392112726016 112.41649034213515 l -16.84729589762308 12.351400130795989 a41.88991297859076,41.88991297859076 0 0,0 -0.42133314841455594,-0.5851948923092735 l 17.05740883841324 -12.059571633035578" fill="#fffa17" stroke="none" /><path d="M 82.85270091963577 112.12312394758628 l -13.516532848012224 9.556175715493088 a37.55346352086998,37.55346352086998 0 0,0 -0.3686303287196208,-0.531039482269696 l 13.679024083893978 -9.322094971036378" fill="#ffc312" stroke="none" /><path d="M 82.44556493220864 111.52570212397912 l -23.874462436429358 15.675237702026166 a49.560515290230654,49.560515290230654 0 0,0 -0.4620813267787966,-0.7171604806411376 l 24.1407486265852 -15.26195562146358" fill="#a8ff21" stroke="none" /><path d="M 82.24976979558568 111.22182372390057 l -23.22145434986995 14.680771140761824 a48.472913631621225,48.472913631621225 0 0,0 -0.43980019357833344,-0.7090979474785112 l 23.47071918311624 -14.278876861918048" fill="#b4ff20" stroke="none" /><line stroke="#e1ed5e" stroke-width="0.3" x1="26.63291911575756" x2="22.317208475507996" y1="142.92168965132927" y2="145.44649492493687" /><path d="M 25.769776987707644 143.4266507060508 a86.0,86.0 0 0,1 -11.730757126820373,-40.83630448921669" fill="none" id="id21" stroke="none" /><text fill="#e1ed5e" style="font-size:6.75px; font-family:Arial;" text-anchor="middle"><textPath startOffset="21.46611528233685" xlink:href="#id21">September</textPath></text><path d="M 81.87401531095188 110.60418214915194 l -17.494479812482385 10.234735034743474 a41.268365132411624,41.268365132411624 0 0,0 -0.35343014719614607,-0.6162352523522527 l 17.66806195583091 -9.932079936532913" fill="#fff216" stroke="none" /><path d="M 81.69416730710424 110.29060199501025 l -15.602404219865868 8.77087290621958 a38.898693499167614,38.898693499167614 0 0,0 -0.32308808513189363,-0.5864987217925444 l 15.751068714449278 -8.501003666029213" fill="#ffd413" stroke="none" /><path d="M 81.35079622478065 109.6543875284942 l -13.514821949261837 6.996402101099268 a36.2184117003226,36.2184117003226 0 0,0 -0.28185052468073146,-0.5561178243612961 l 13.633251143728835 -6.762730065035288" fill="#ffb110" stroke="none" /><path d="M 81.18737489456691 109.33194174019688 l -47.643073945432924 23.633192491263266 a74.18261259377064,74.18261259377064 0 0,0 -0.5575944673208872,-1.1488097567068078 l 48.04282166936853 -22.80959377859117" fill="#40ffca" stroke="none" /><path d="M 80.73074385275274 108.34839909993369 l -18.54380282693618 8.034096679536722 a41.2093872430717,41.2093872430717 0 0,0 -0.2763953218501394,-0.6533168949955519 l 18.679349129978625 -7.713705258875012" fill="#fff216" stroke="none" /><path d="M 80.58989483394504 108.01547362559985 l -20.089135053908727 8.295881491014425 a42.734649684941786,42.734649684941786 0 0,0 -0.27492092633628484,-0.6823311930655829 l 20.228958594502398 -7.948850930106037" fill="#f9ff18" stroke="none" /><path d="M 80.32549172779594 107.34259656027581 l -23.23027984092739 8.669623174024549 a45.795327532972436,45.795327532972436 0 0,0 -0.2692672337924555,-0.7409077817216098 l 23.376071335725072 -8.268467595296821" fill="#d4ff1c" stroke="none" /><path d="M 79.97269907076064 106.31721596034903 l -24.026908253882358 7.5788129831148545 a46.193862873198114,46.193862873198114 0 0,0 -0.2326701888813049,-0.7603796394711405 l 24.15380521526979 -7.164106371091666" fill="#cfff1d" stroke="none" /><path d="M 79.86692584326677 105.97154293290107 l -26.6296997121595 7.898465673124327 a48.77636885464533,48.77636885464533 0 0,0 -0.2318209884596624,-0.8069992728846177 l 26.761713337505263 -7.438908924735113" fill="#b1ff20" stroke="none" /><path d="M 79.67330655649465 105.27499134158121 l -14.650636895306004 3.8019947999010166 a36.13592831300994,36.13592831300994 0 0,0 -0.15106312634891075,-0.603422097947817 l 14.713911335949975 -3.5492448625558075" fill="#ffb010" stroke="none" /><path d="M 79.58551787078972 104.9243191809786 l -15.456919921524335 3.7284711297918673 a36.9002474957501,36.9002474957501 0 0,0 -0.1436288260630982,-0.6187492235642092 l 15.51880931351799 -3.461853248879084" fill="#ffba11" stroke="none" /><path d="M 79.4281124754447 104.21870165774334 l -39.5877758064462 8.118312683835102 a61.41161954356649,61.41161954356649 0 0,0 -0.20344811846279964,-1.0373775729335961 l 39.72165385788467 -7.435671383833551" fill="#30ff37" stroke="none" /><path d="M 79.29508885075956 103.50808413554451 l -24.84046347639859 4.208780960855441 a46.19449270969256,46.19449270969256 0 0,0 -0.12608510858522484,-0.7851320915178426 l 24.909230339345104 -3.7805696396443853" fill="#cfff1d" stroke="none" /><path d="M 79.18660465613746 102.79330883721812 l -30.017045573671837 4.028505550529576 a51.286166511173704,51.286166511173704 0 0,0 -0.10989524235798369,-0.8759732084865562 l 30.081942325276668 -3.511214587755611" fill="#94ff23" stroke="none" /><path d="M 79.10278846688536 102.07522291339032 l -28.581595577588473 2.8383299824417523 a49.72218172162506,49.72218172162506 0 0,0 -0.077247916792983,-0.8524243248454914 l 28.626218090658533 -2.345924269047695" fill="#a6ff21" stroke="none" /><path d="M 79.04373962182676 101.35467743843564 l -27.766911544346293 1.7949389788715253 a48.82486626471768,48.82486626471768 0 0,0 -0.046996605458961775,-0.8391559610036354 l 27.793694500692787 -1.316711301532452" fill="#b0ff20" stroke="none" /><path d="M 79.0235259727143 100.99374915477108 l -12.746695307059191 0.6038678221629425 a33.76099124667236,33.76099124667236 0 0,0 -0.022503898584890013,-0.5807256286504451 l 12.755201338495281 -0.38436494649850067" fill="#ff900d" stroke="none" /><path d="M 79.0095281055655 100.63252640178507 l -20.350655295139887 0.6132461829605769 a41.359892971784525,41.359892971784525 0 0,0 -0.015318793089968606,-0.7118041208492001 l 20.358196150914864 -0.262852246321248" fill="#fff417" stroke="none" /><line stroke="#e1ed5e" stroke-width="0.3" x1="15.007084014347285" x2="10.007500721073583" y1="101.09737516637583" y2="101.16192664675087" /><path d="M 14.007167355692545 101.11028546245083 a86.0,86.0 0 0,1 10.666146001902534,-42.60595125391555" fill="none" id="id22" stroke="none" /><text fill="#e1ed5e" style="font-size:6.75px; font-family:Arial;" text-anchor="middle"><textPath startOffset="22.20632615414155" xlink:href="#id22">October</textPath></text><path d="M 79.00019446554 99.90962569577889 l -25.289111899739805 -0.10883366936701531 a46.28934608575614,46.28934608575614 0 0,0 0.010287240414658352,-0.7967581070519647 l 25.28349165220743 0.5441280344794519" fill="#ceff1d" stroke="none" /><path d="M 79.03285615573316 98.82574320788736 l -20.217008369825084 -1.1322457446180312 a41.24868904032513,41.24868904032513 0 0,0 0.045804526203005784,-0.708575746797306 l 20.194523252617664 1.480080555668349" fill="#fff216" stroke="none" /><path d="M 79.08570108090925 98.10471618934814 l -30.128846721844038 -2.730319368888733 a51.25230650123228,51.25230650123228 0 0,0 0.08718474779235309,-0.8779385122061742 l 30.077384848369455 3.248533411799338" fill="#94ff23" stroke="none" /><path d="M 79.16333360222342 97.38593545837743 l -20.366271581009535 -2.5550511472724478 a41.525917871720495,41.525917871720495 0 0,0 0.09508248924133914,-0.7084749858269909 l 20.31927309271036 2.905244475164098" fill="#fff617" stroke="none" /><path d="M 79.32604984820605 96.31383870115002 l -13.24301527231448 -2.3612270523274437 a34.451871494160116,34.451871494160116 0 0,0 0.10912101392307307,-0.5829288197293981 l 13.200408534481546 2.5888339495194144" fill="#ff990e" stroke="none" /><path d="M 79.3925641242962 95.95851677861259 l -29.69481892445288 -5.8236800138151565 a51.26049437566007,51.26049437566007 0 0,0 0.17726539015742357,-0.8644089969295343 l 29.590174238380463 6.333964666908093" fill="#94ff23" stroke="none" /><path d="M 79.46518482838121 95.60439243477599 l -14.805052131557328 -3.1691154076201538 a36.14043794231018,36.14043794231018 0 0,0 0.13545025344115916,-0.6071969270510468 l 14.748307491114133 3.42349050422116" fill="#ffb010" stroke="none" /><path d="M 79.62865764111835 94.90015583598534 l -16.018423888783275 -4.010116964644101 a37.51275088986899,37.51275088986899 0 0,0 0.16220454202073792,-0.6250402678028666 l 15.94702301489223 4.285253657995831" fill="#ffc212" stroke="none" /><path d="M 79.81627453868168 94.20196356495316 l -33.95453400049823 -9.753879463294433 a56.32773052115671,56.32773052115671 0 0,0 0.2757218346026584,-0.9295969576139506 l 33.78160626878387 10.336905807654922" fill="#5dff2a" stroke="none" /><path d="M 80.2630227832202 92.82701384747504 l -23.696623774160926 -8.612035790827267 a46.21303509608906,46.21303509608906 0 0,0 0.27814836131232873,-0.745299321652209 l 23.54487082434697 9.018658249508817" fill="#cfff1d" stroke="none" /><path d="M 80.38941819471856 92.48833698450439 l -23.616932771548967 -9.046260952426895 a46.290202663388584,46.290202663388584 0 0,0 0.29142206520874725,-0.7416373690320891 l 23.45771715645853 9.451447326354748" fill="#ceff1d" stroke="none" /><path d="M 80.803312248108 91.48605970444005 l -18.88606615865569 -8.376176232638981 a41.6601990123364,41.6601990123364 0 0,0 0.296377962251844,-0.6530295534343065 l 18.739085879440495 8.700027794915359" fill="#fff717" stroke="none" /><path d="M 80.95270993114464 91.15688171328213 l -22.579051255973706 -10.482815158305629 a45.8938339607038,45.8938339607038 0 0,0 0.3388315670854419,-0.7136656931048543 l 22.395261495046512 10.869923267051014" fill="#d3ff1c" stroke="none" /><path d="M 81.43458229118936 90.18545643968196 l -18.609547389889894 -9.837872562877989 a42.049916641639825,42.049916641639825 0 0,0 0.3437919102813312,-0.6369941968090453 l 18.43744738039009 10.156747743019507" fill="#fffc17" stroke="none" /><line stroke="#e1ed5e" stroke-width="0.3" x1="26.266209847984243" x2="21.928928074336255" y1="57.711370442889674" y2="55.22380399835377" /><path d="M 25.398753493254645 57.213857153982495 a86.0,86.0 0 0,1 29.58750427330803,-30.492523968695096" fill="none" id="id23" stroke="none" /><text fill="#e1ed5e" style="font-size:6.75px; font-family:Arial;" text-anchor="middle"><textPath startOffset="21.46611528233685" xlink:href="#id23">November</textPath></text><path d="M 81.96595687620814 89.24020034530311 l -46.11347020510522 -27.51305946114655 a74.6974913312504,74.6974913312504 0 0,0 0.6683085013711529,-1.098523456365491 l 45.63304590544785 28.302750690719115" fill="#41ffd0" stroke="none" /><path d="M 82.34701348167596 88.62581576622439 l -15.145232881249672 -9.758386711277256 a39.01677524514636,39.01677524514636 0 0,0 0.36862188029146875,-0.5614364133774554 l 14.975014365600284 10.017641188632377" fill="#ffd614" stroke="none" /><path d="M 82.54541684631803 88.32363383020206 l -17.50867831835363 -11.712553510690617 a42.065083104426094,42.065083104426094 0 0,0 0.4077819890320183,-0.5983697512499238 l 17.304471863652875 12.012201285210956" fill="#fffc17" stroke="none" /><path d="M 82.7489923806493 88.02491185347247 l -19.558600288166055 -13.576943888817466 a44.809079163049276,44.809079163049276 0 0,0 0.4452899685493991,-0.6298310815936806 l 19.32199769981278 13.911601470742932" fill="#e0ff1b" stroke="none" /><path d="M 83.17141714833178 87.43820079747576 l -24.238720988194412 -18.093142403225276 a51.2469402942996,51.2469402942996 0 0,0 0.5337589920124719,-0.7023642669626423 l 23.92368605595783 18.507691446068947" fill="#94ff23" stroke="none" /><path d="M 83.6137871275137 86.86637796730984 l -15.877520246975433 -12.725902645284034 a41.348077239148715,41.348077239148715 0 0,0 0.44990942851844157,-0.5515357614739665 l 15.6561123263806 12.997322576366084" fill="#fff316" stroke="none" /><path d="M 84.31358615837235 86.03803664274999 l -3.116244591939301 -2.7736672794787416 a25.17183539153236,25.17183539153236 0 0,0 0.29086218738673497,-0.3211772920224114 l 3.068038763936521 2.826897358770709" fill="#ff1502" stroke="none" /><path d="M 84.5562425177563 85.77008943001954 l -14.915594537391591 -13.743260123658434 a41.28181843993299,41.28181843993299 0 0,0 0.48601021556352614,-0.5184418118808567 l 14.676816999857609 13.997971352417341" fill="#fff316" stroke="none" /><path d="M 85.31137513191541 84.99185889309783 l -28.243053543189497 -28.857414269390034 a61.37846495049885,61.37846495049885 0 0,0 0.7614342190929649,-0.7324991154838832 l 27.742136080484105 29.33929647163623" fill="#30ff37" stroke="none" /><path d="M 85.57189188830299 84.74124197986013 l -10.390890307785767 -10.989110948772268 a36.123860645776354,36.123860645776354 0 0,0 0.45549111932832553,-0.42332935420019446 l 10.200191304662585 11.16634488904711" fill="#ffb010" stroke="none" /><path d="M 85.83668400450813 84.49514656593479 l -14.674920785784629 -16.06491700195989 a42.75855827827096,42.75855827827096 0 0,0 0.5476943982424861,-0.4917254384666189 l 14.396215399946172 16.31514144919579" fill="#f9ff18" stroke="none" /><path d="M 86.65592168130627 83.78471172551755 l -28.86258618169226 -35.07287233375953 a66.42196885688475,66.42196885688475 0 0,0 0.889094747920233,-0.7189194537562601 l 28.25458803520753 35.564497884779925" fill="#37ff73" stroke="none" /><path d="M 87.51073957382395 83.11751280151077 l -12.453021004468985 -16.833500184673127 a41.939065418617325,41.939065418617325 0 0,0 0.5840607671152278,-0.4243449862486492 l 12.161414920999976 17.045364405738443" fill="#fffb17" stroke="none" /><path d="M 87.80319425747018 82.90503203632743 l -14.638894364492172 -20.517784366439713 a46.20469606090259,46.20469606090259 0 0,0 0.6514177004111796,-0.4563597285007787 l 14.283545524497333 20.766728937704436" fill="#cfff1d" stroke="none" /><path d="M 88.39885842347998 82.49532879139004 l -6.973227628378158 -10.521728063779909 a33.62270434595179,33.62270434595179 0 0,0 0.48518038567282595,-0.3155748190120464 l 6.791080216921045 10.640201806951492" fill="#ff8e0d" stroke="none" /><path d="M 89.00827224532344 82.1063720568725 l -31.90342509446357 -51.93614975670099 a81.95237636309614,81.95237636309614 0 0,0 1.2083602136010787,-0.7280235082599473 l 31.004702814644844 52.47761987441956" fill="#4ae5ff" stroke="none" /><line stroke="#e1ed5e" stroke-width="0.3" x1="56.762969772571076" x2="54.21961505331055" y1="26.818313649435495" y2="22.513508569990535" /><path d="M 56.25429882871897 25.957352633546506 a86.0,86.0 0 0,1 42.265352541879196,-11.944610805530505" fill="none" id="id24" stroke="none" /><text fill="#e1ed5e" style="font-size:6.75px; font-family:Arial;" text-anchor="middle"><textPath startOffset="22.20632615414155" xlink:href="#id24">December</textPath></text><path d="M 89.94658935756843 81.56283822128135 l -13.432220729913139 -24.63363284889837 a49.05780499382361,49.05780499382361 0 0,0 0.7448725775585284,-0.39788513436080347 l 13.006203105826305 24.86119670976092" fill="#adff20" stroke="none" /><path d="M 90.26544431104013 81.39251694778311 l -18.10626914366003 -34.60990999431329 a60.059990426485285,60.059990426485285 0 0,0 0.9201748588209949,-0.47134930247353113 l 17.50783379725027 34.916451822099326" fill="#37ff2e" stroke="none" /><path d="M 91.23893434514133 80.91482961587045 l -15.869354290412252 -34.569919054387086 a59.03834524557425,59.03834524557425 0 0,0 0.927233426577261,-0.41602261029957777 l 15.271938745368216 34.837961995203194" fill="#41ff2d" stroke="none" /><path d="M 91.90106846888425 80.62456947434976 l -8.754641940236816 -20.944115410571165 a43.70021422438735,43.70021422438735 0 0,0 0.6965317430164641,-0.28413278684693777 l 8.39282632763197 21.09170908360168" fill="#edff1a" stroke="none" /></svg>